M48
;Layer_Color=9474304
;FILE_FORMAT=4:4
METRIC,TZ
;TYPE=PLATED
T1F00S00C0.4000
T2F00S00C0.7620
T3F00S00C0.8000
T4F00S00C0.9000
T5F00S00C1.0000
T6F00S00C1.0160
T7F00S00C1.2000
T8F00S00C2.0000
T9F00S00C3.3020
T10F00S00C4.0000
%
T01
X1377950Y336550
X1231900Y292100
Y242700
X1114425Y263525
Y290449
X1051560Y276225
X1031875
X1123950Y450850
X1155700Y425450
X876300Y400050
X850900
X812800
X787400Y441325
X765175Y365125
X708025
X428625Y349250
X368300Y327025
X299475Y342900
Y361950
X241300
X244475Y381000
X241300Y393700
X234950Y403225
Y422275
X241300Y431800
X203200Y428625
X152400Y425450
Y368300
X161925Y361950
X152400Y352425
Y336550
X177800Y342900
X193675Y330200
X196850Y358775
X250825Y346075
X244475Y336550
X238125Y327025
X241300Y292100
X184150Y285750
X146050
X165100Y180975
X260350Y222250
X107950Y200025
X117475Y333375
Y346075
X50800Y384175
T02
X1219200Y419100
X1244600
X1270000
X1295400
Y444500
X1270000
X1244600
X1219200
Y469900
X1244600
X1270000
X1295400
T03
X165100Y88900
Y108712
X190300
Y88900
X266700Y254000
Y279400
Y304800
Y330200
Y355600
Y381000
Y406400
Y431800
Y457200
X88900Y419100
Y368300
T04
X565000Y33100
X590400
X615800
X641200
X666600
X692000
X717400
X742800
X768200
X793600
X819000
X949250Y277575
Y429975
X1079500Y482600
Y508000
X1104900
X1130300
Y482600
X1104900
X1117600Y165100
X1143000
X1168400
X923850Y277575
X898450
X873050
X847650
X822250
Y429975
X847650
X873050
X898450
X923850
X565150Y419100
X539750
Y495300
X565150
X463550
X438150
Y419100
X463550
X203200Y469900
Y495300
X177800
Y469900
X152400
Y495300
X101600Y304800
Y279400
Y254000
X76200
Y279400
Y304800
T05
X565150Y184150
Y234950
Y285750
Y361950
X488950
X463550
Y285750
X488950
Y234950
X463550
Y184150
X488950
X387350
Y234950
Y285750
Y361950
T06
X1128014Y88900
X1155700
X1183470
X1211170
X1197370Y117324
X1225070
X1169670
X1141730
X1114044
T07
X609600Y209550
Y234950
Y260350
X508000Y603250
X457200
X406400
X355600
X558800
X609600
X850900
X901700
X952500
X1003300
X1054100
X1104900
X1155700
X1206500
T08
X117602Y61722
X237998
T09
X1044448Y103124
X1294670
T10
X50000Y110000
X730000
X1410000
X50000Y570000
X730000
X1410000
M30
