G04 Layer_Physical_Order=1*
G04 Layer_Color=255*
%FSLAX44Y44*%
%MOMM*%
G71*
G01*
G75*
%ADD10R,3.3000X2.4000*%
%ADD11R,1.4224X1.8034*%
%ADD12R,3.2499X2.5001*%
%ADD13R,1.2192X2.0066*%
%ADD14R,2.0066X1.2192*%
%ADD15R,2.3114X1.6002*%
%ADD16R,10.4500X8.3000*%
%ADD17R,1.0500X3.2000*%
%ADD18R,1.5999X3.8999*%
%ADD19R,1.3208X1.5240*%
%ADD20R,1.5240X1.5240*%
%ADD21R,1.4001X3.0000*%
%ADD22R,1.5240X1.3208*%
%ADD23R,0.3000X2.0000*%
%ADD24R,1.3208X1.6002*%
%ADD25R,1.6002X1.3208*%
%ADD26R,0.6000X2.3000*%
%ADD27R,0.3500X2.0000*%
%ADD28R,1.1500X0.6000*%
%ADD29R,1.6500X0.4000*%
%ADD30R,0.4000X1.6500*%
%ADD31R,2.4130X2.6162*%
%ADD32R,0.3500X2.1000*%
%ADD33C,0.3000*%
%ADD34C,1.0000*%
%ADD35C,0.4000*%
%ADD36C,0.3500*%
%ADD37C,0.7000*%
%ADD38C,1.6000*%
%ADD39R,1.6000X1.6000*%
%ADD40C,1.5000*%
%ADD41R,1.5000X1.5000*%
%ADD42R,1.6000X1.6000*%
%ADD43O,3.5000X1.8000*%
%ADD44C,2.5000*%
%ADD45R,1.8796X1.8796*%
%ADD46C,1.8796*%
%ADD47C,5.0800*%
%ADD48C,1.8000*%
%ADD49C,3.5000*%
%ADD50C,1.5240*%
%ADD51C,8.0000*%
%ADD52C,0.8000*%
G36*
X1453607Y585484D02*
X1452337Y585274D01*
X1451664Y587258D01*
X1449055Y592548D01*
X1445777Y597453D01*
X1441888Y601888D01*
X1437453Y605778D01*
X1432548Y609055D01*
X1427258Y611664D01*
X1421672Y613560D01*
X1415886Y614711D01*
X1410000Y615097D01*
X1404114Y614711D01*
X1398328Y613560D01*
X1392742Y611664D01*
X1387452Y609055D01*
X1382547Y605778D01*
X1378112Y601888D01*
X1374223Y597453D01*
X1370945Y592548D01*
X1368336Y587258D01*
X1366440Y581672D01*
X1365289Y575886D01*
X1364903Y570000D01*
X1365289Y564114D01*
X1366440Y558328D01*
X1368336Y552742D01*
X1370945Y547452D01*
X1374223Y542547D01*
X1378112Y538112D01*
X1382547Y534222D01*
X1387452Y530945D01*
X1392742Y528336D01*
X1398328Y526440D01*
X1404114Y525289D01*
X1410000Y524903D01*
X1415886Y525289D01*
X1421672Y526440D01*
X1427258Y528336D01*
X1432548Y530945D01*
X1437453Y534222D01*
X1441888Y538112D01*
X1445777Y542547D01*
X1449055Y547452D01*
X1451664Y552742D01*
X1452337Y554726D01*
X1453607Y554516D01*
Y125484D01*
X1452337Y125274D01*
X1451664Y127258D01*
X1449055Y132548D01*
X1445777Y137453D01*
X1441888Y141888D01*
X1437453Y145778D01*
X1432548Y149055D01*
X1427258Y151664D01*
X1421672Y153560D01*
X1415886Y154711D01*
X1410000Y155097D01*
X1404114Y154711D01*
X1398328Y153560D01*
X1392742Y151664D01*
X1387452Y149055D01*
X1382547Y145778D01*
X1378112Y141888D01*
X1374223Y137453D01*
X1370945Y132548D01*
X1368336Y127258D01*
X1366440Y121672D01*
X1365289Y115886D01*
X1364903Y110000D01*
X1365289Y104114D01*
X1366440Y98328D01*
X1368336Y92742D01*
X1370945Y87452D01*
X1374223Y82547D01*
X1378112Y78112D01*
X1382547Y74222D01*
X1387452Y70945D01*
X1392742Y68336D01*
X1398328Y66440D01*
X1404114Y65289D01*
X1410000Y64903D01*
X1415886Y65289D01*
X1421672Y66440D01*
X1427258Y68336D01*
X1432548Y70945D01*
X1437453Y74222D01*
X1441888Y78112D01*
X1445777Y82547D01*
X1449055Y87452D01*
X1451664Y92742D01*
X1452337Y94726D01*
X1453607Y94516D01*
Y6393D01*
X6393D01*
Y94516D01*
X7663Y94726D01*
X8336Y92742D01*
X10945Y87452D01*
X14223Y82547D01*
X18112Y78112D01*
X22547Y74222D01*
X27452Y70945D01*
X32742Y68336D01*
X38328Y66440D01*
X44114Y65289D01*
X50000Y64903D01*
X55886Y65289D01*
X61672Y66440D01*
X67258Y68336D01*
X72548Y70945D01*
X77453Y74222D01*
X81888Y78112D01*
X85778Y82547D01*
X89055Y87452D01*
X91664Y92742D01*
X93560Y98328D01*
X94711Y104114D01*
X95097Y110000D01*
X94711Y115886D01*
X93560Y121672D01*
X91664Y127258D01*
X89055Y132548D01*
X85778Y137453D01*
X81888Y141888D01*
X77453Y145778D01*
X72548Y149055D01*
X67258Y151664D01*
X61672Y153560D01*
X55886Y154711D01*
X50000Y155097D01*
X44114Y154711D01*
X38328Y153560D01*
X32742Y151664D01*
X27452Y149055D01*
X22547Y145778D01*
X18112Y141888D01*
X14223Y137453D01*
X10945Y132548D01*
X8336Y127258D01*
X7663Y125274D01*
X6393Y125484D01*
Y554516D01*
X7663Y554726D01*
X8336Y552742D01*
X10945Y547452D01*
X14223Y542547D01*
X18112Y538112D01*
X22547Y534222D01*
X27452Y530945D01*
X32742Y528336D01*
X38328Y526440D01*
X44114Y525289D01*
X50000Y524903D01*
X55886Y525289D01*
X61672Y526440D01*
X67258Y528336D01*
X72548Y530945D01*
X77453Y534222D01*
X81888Y538112D01*
X85778Y542547D01*
X89055Y547452D01*
X91664Y552742D01*
X93560Y558328D01*
X94711Y564114D01*
X95097Y570000D01*
X94711Y575886D01*
X93560Y581672D01*
X91664Y587258D01*
X89055Y592548D01*
X85778Y597453D01*
X81888Y601888D01*
X77453Y605778D01*
X72548Y609055D01*
X67258Y611664D01*
X61672Y613560D01*
X55886Y614711D01*
X50000Y615097D01*
X44114Y614711D01*
X38328Y613560D01*
X32742Y611664D01*
X27452Y609055D01*
X22547Y605778D01*
X18112Y601888D01*
X14223Y597453D01*
X10945Y592548D01*
X8336Y587258D01*
X7663Y585274D01*
X6393Y585484D01*
Y673607D01*
X1453607D01*
Y585484D01*
D02*
G37*
%LPC*%
G36*
X120102Y81613D02*
Y64222D01*
X137493D01*
X137352Y65651D01*
X136206Y69428D01*
X134345Y72909D01*
X131841Y75961D01*
X128790Y78465D01*
X125308Y80326D01*
X121531Y81472D01*
X120102Y81613D01*
D02*
G37*
G36*
X240498D02*
Y64222D01*
X257889D01*
X257748Y65651D01*
X256602Y69428D01*
X254741Y72909D01*
X252237Y75961D01*
X249186Y78465D01*
X245704Y80326D01*
X241926Y81472D01*
X240498Y81613D01*
D02*
G37*
G36*
X1385950Y407548D02*
X1369950D01*
X1367999Y407160D01*
X1366346Y406055D01*
X1365240Y404401D01*
X1364852Y402450D01*
Y363451D01*
X1365240Y361500D01*
X1366346Y359846D01*
X1367864Y358832D01*
Y352398D01*
X1361700D01*
X1359749Y352010D01*
X1358096Y350905D01*
X1356991Y349251D01*
X1356602Y347301D01*
Y344886D01*
X1331750D01*
X1329139Y344543D01*
X1326707Y343535D01*
X1324618Y341932D01*
X1316622Y333936D01*
X1299192D01*
X1299140Y334000D01*
Y347500D01*
X1291300D01*
Y350000D01*
X1288800D01*
Y368590D01*
X1286050D01*
X1285059Y368393D01*
X1284345Y367916D01*
X1284260Y367951D01*
X1283155Y369605D01*
X1281501Y370710D01*
X1279550Y371098D01*
X1269050D01*
X1267099Y370710D01*
X1265445Y369605D01*
X1264340Y367951D01*
X1264255Y367916D01*
X1263541Y368393D01*
X1262550Y368590D01*
X1259800D01*
Y350000D01*
Y331410D01*
X1262550D01*
X1262944Y331488D01*
X1264214Y330646D01*
Y329075D01*
X1264557Y326465D01*
X1265565Y324032D01*
X1267168Y321943D01*
X1272393Y316718D01*
X1274179Y315347D01*
X1273802Y313450D01*
Y310023D01*
X1270551D01*
X1249565Y331009D01*
X1250260Y332049D01*
X1250345Y332084D01*
X1251059Y331607D01*
X1252050Y331410D01*
X1254800D01*
Y350000D01*
Y368590D01*
X1252050D01*
X1251059Y368393D01*
X1250345Y367916D01*
X1250260Y367951D01*
X1249155Y369605D01*
X1247501Y370710D01*
X1245550Y371098D01*
X1235050D01*
X1233099Y370710D01*
X1231800Y369842D01*
X1230501Y370710D01*
X1228550Y371098D01*
X1218050D01*
X1216099Y370710D01*
X1214445Y369605D01*
X1213340Y367951D01*
X1212952Y366000D01*
Y334000D01*
X1213214Y332684D01*
Y319750D01*
X1213557Y317139D01*
X1214565Y314707D01*
X1216168Y312618D01*
X1220568Y308218D01*
X1220190Y307651D01*
X1219802Y305700D01*
Y275700D01*
X1220190Y273750D01*
X1221295Y272096D01*
X1222949Y270991D01*
X1224900Y270602D01*
X1238900D01*
X1240851Y270991D01*
X1242505Y272096D01*
X1243610Y273750D01*
X1243998Y275700D01*
Y305700D01*
X1243610Y307651D01*
X1242505Y309305D01*
X1241986Y309652D01*
Y311150D01*
X1241775Y312754D01*
X1242978Y313348D01*
X1260938Y295388D01*
X1262713Y294025D01*
X1264781Y293169D01*
X1267000Y292877D01*
X1273802D01*
Y289450D01*
X1274190Y287499D01*
X1275295Y285845D01*
X1276949Y284740D01*
X1278900Y284352D01*
X1286827D01*
Y279400D01*
X1287119Y277181D01*
X1287975Y275113D01*
X1289338Y273338D01*
X1293938Y268738D01*
X1295713Y267375D01*
X1297781Y266519D01*
X1300000Y266227D01*
X1356602D01*
Y262299D01*
X1356991Y260349D01*
X1358096Y258695D01*
X1359749Y257590D01*
X1361700Y257201D01*
X1394200D01*
X1396151Y257590D01*
X1397804Y258695D01*
X1398909Y260349D01*
X1399298Y262299D01*
Y287301D01*
X1398909Y289252D01*
X1397804Y290905D01*
X1396151Y292011D01*
X1394200Y292399D01*
X1361700D01*
X1359749Y292011D01*
X1358096Y290905D01*
X1356991Y289252D01*
X1356602Y287301D01*
Y283373D01*
X1313490D01*
X1313365Y284643D01*
X1313851Y284740D01*
X1315505Y285845D01*
X1316610Y287499D01*
X1316998Y289450D01*
Y313450D01*
X1317256Y313764D01*
X1320800D01*
X1323410Y314107D01*
X1325843Y315115D01*
X1327932Y316718D01*
X1335928Y324714D01*
X1356602D01*
Y322299D01*
X1356991Y320348D01*
X1358096Y318694D01*
X1359749Y317589D01*
X1361700Y317201D01*
X1394200D01*
X1396151Y317589D01*
X1397804Y318694D01*
X1398201Y319289D01*
X1399836Y319450D01*
X1401900Y317386D01*
Y248034D01*
X1401454Y247668D01*
X1388246D01*
X1386295Y247280D01*
X1384641Y246175D01*
X1383880Y245036D01*
X1382036D01*
X1381275Y246175D01*
X1379621Y247280D01*
X1377670Y247668D01*
X1362430D01*
X1360479Y247280D01*
X1358825Y246175D01*
X1357720Y244521D01*
X1357332Y242570D01*
Y227330D01*
X1357720Y225379D01*
X1358825Y223725D01*
X1360479Y222620D01*
X1362430Y222232D01*
X1377670D01*
X1379621Y222620D01*
X1381275Y223725D01*
X1382036Y224864D01*
X1383880D01*
X1384641Y223725D01*
X1386295Y222620D01*
X1388246Y222232D01*
X1401454D01*
X1403405Y222620D01*
X1403418Y222629D01*
X1403431Y222620D01*
X1405382Y222232D01*
X1418590D01*
X1420541Y222620D01*
X1422195Y223725D01*
X1423300Y225379D01*
X1423688Y227330D01*
Y242570D01*
X1423300Y244521D01*
X1422195Y246175D01*
X1422072Y246257D01*
Y321564D01*
X1421729Y324174D01*
X1420721Y326607D01*
X1419118Y328696D01*
X1405882Y341932D01*
X1403793Y343535D01*
X1401361Y344543D01*
X1399298Y344814D01*
Y347301D01*
X1398909Y349251D01*
X1397804Y350905D01*
X1396151Y352010D01*
X1394200Y352398D01*
X1388036D01*
Y358832D01*
X1389554Y359846D01*
X1390660Y361500D01*
X1391048Y363451D01*
Y402450D01*
X1390660Y404401D01*
X1389554Y406055D01*
X1387901Y407160D01*
X1385950Y407548D01*
D02*
G37*
G36*
X115102Y81613D02*
X113673Y81472D01*
X109896Y80326D01*
X106414Y78465D01*
X103363Y75961D01*
X100859Y72909D01*
X98998Y69428D01*
X97852Y65651D01*
X97711Y64222D01*
X115102D01*
Y81613D01*
D02*
G37*
G36*
X1296550Y368590D02*
X1293800D01*
Y352500D01*
X1299140D01*
Y366000D01*
X1298943Y366991D01*
X1298381Y367831D01*
X1297541Y368393D01*
X1296550Y368590D01*
D02*
G37*
G36*
X235498Y81613D02*
X234069Y81472D01*
X230292Y80326D01*
X226810Y78465D01*
X223759Y75961D01*
X221255Y72909D01*
X219394Y69428D01*
X218248Y65651D01*
X218107Y64222D01*
X235498D01*
Y81613D01*
D02*
G37*
G36*
X1044448Y133618D02*
X1039678Y133243D01*
X1035025Y132126D01*
X1030604Y130294D01*
X1026524Y127794D01*
X1022886Y124686D01*
X1019778Y121048D01*
X1017278Y116968D01*
X1015446Y112547D01*
X1014329Y107894D01*
X1013954Y103124D01*
X1014329Y98354D01*
X1015446Y93701D01*
X1017278Y89280D01*
X1019778Y85200D01*
X1022886Y81561D01*
X1026524Y78454D01*
X1030604Y75954D01*
X1035025Y74123D01*
X1039678Y73005D01*
X1044448Y72630D01*
X1049218Y73005D01*
X1053871Y74123D01*
X1058292Y75954D01*
X1062372Y78454D01*
X1066011Y81561D01*
X1069118Y85200D01*
X1071618Y89280D01*
X1073449Y93701D01*
X1074566Y98354D01*
X1074942Y103124D01*
X1074566Y107894D01*
X1073449Y112547D01*
X1071618Y116968D01*
X1069118Y121048D01*
X1066011Y124686D01*
X1062372Y127794D01*
X1058292Y130294D01*
X1053871Y132126D01*
X1049218Y133243D01*
X1044448Y133618D01*
D02*
G37*
G36*
X200602Y86400D02*
X192800D01*
Y78598D01*
X193051Y78631D01*
X195615Y79693D01*
X197817Y81383D01*
X199507Y83584D01*
X200569Y86149D01*
X200602Y86400D01*
D02*
G37*
G36*
X565150Y299871D02*
X561495Y299390D01*
X558090Y297979D01*
X555165Y295735D01*
X552921Y292810D01*
X551510Y289405D01*
X551029Y285750D01*
X551510Y282095D01*
X552921Y278690D01*
X555165Y275765D01*
X558090Y273521D01*
X561495Y272110D01*
X565150Y271629D01*
X568805Y272110D01*
X572210Y273521D01*
X575135Y275765D01*
X577379Y278690D01*
X578790Y282095D01*
X579271Y285750D01*
X578790Y289405D01*
X577379Y292810D01*
X575135Y295735D01*
X572210Y297979D01*
X568805Y299390D01*
X565150Y299871D01*
D02*
G37*
G36*
X387350D02*
X383695Y299390D01*
X380290Y297979D01*
X377365Y295735D01*
X375121Y292810D01*
X373710Y289405D01*
X373229Y285750D01*
X373710Y282095D01*
X375121Y278690D01*
X377365Y275765D01*
X380290Y273521D01*
X383695Y272110D01*
X387350Y271629D01*
X391005Y272110D01*
X394410Y273521D01*
X397335Y275765D01*
X399579Y278690D01*
X400990Y282095D01*
X401471Y285750D01*
X400990Y289405D01*
X399579Y292810D01*
X397335Y295735D01*
X394410Y297979D01*
X391005Y299390D01*
X387350Y299871D01*
D02*
G37*
G36*
X1294670Y133618D02*
X1289900Y133243D01*
X1285247Y132126D01*
X1280826Y130294D01*
X1276746Y127794D01*
X1273108Y124686D01*
X1270000Y121048D01*
X1267500Y116968D01*
X1265668Y112547D01*
X1264551Y107894D01*
X1264176Y103124D01*
X1264551Y98354D01*
X1265668Y93701D01*
X1267500Y89280D01*
X1270000Y85200D01*
X1273108Y81561D01*
X1276746Y78454D01*
X1280826Y75954D01*
X1285247Y74123D01*
X1289900Y73005D01*
X1294670Y72630D01*
X1299440Y73005D01*
X1304093Y74123D01*
X1308514Y75954D01*
X1312594Y78454D01*
X1316232Y81561D01*
X1319340Y85200D01*
X1321840Y89280D01*
X1323672Y93701D01*
X1324789Y98354D01*
X1325164Y103124D01*
X1324789Y107894D01*
X1323672Y112547D01*
X1321840Y116968D01*
X1319340Y121048D01*
X1316232Y124686D01*
X1312594Y127794D01*
X1308514Y130294D01*
X1304093Y132126D01*
X1299440Y133243D01*
X1294670Y133618D01*
D02*
G37*
G36*
X488950Y299871D02*
X485295Y299390D01*
X481890Y297979D01*
X478965Y295735D01*
X477002Y293176D01*
X476659Y293074D01*
X475841D01*
X475498Y293176D01*
X473535Y295735D01*
X470610Y297979D01*
X467205Y299390D01*
X463550Y299871D01*
X459895Y299390D01*
X456490Y297979D01*
X453565Y295735D01*
X451321Y292810D01*
X449910Y289405D01*
X449429Y285750D01*
X449910Y282095D01*
X451321Y278690D01*
X453565Y275765D01*
X456490Y273521D01*
X459895Y272110D01*
X463550Y271629D01*
X467205Y272110D01*
X470610Y273521D01*
X473535Y275765D01*
X475498Y278323D01*
X475841Y278426D01*
X476659D01*
X477002Y278323D01*
X478965Y275765D01*
X481890Y273521D01*
X485295Y272110D01*
X488950Y271629D01*
X492605Y272110D01*
X496010Y273521D01*
X498935Y275765D01*
X501179Y278690D01*
X502590Y282095D01*
X503071Y285750D01*
X502590Y289405D01*
X501179Y292810D01*
X498935Y295735D01*
X496010Y297979D01*
X492605Y299390D01*
X488950Y299871D01*
D02*
G37*
G36*
X187800Y86400D02*
X179998D01*
X180031Y86149D01*
X181093Y83584D01*
X182783Y81383D01*
X184984Y79693D01*
X187549Y78631D01*
X187800Y78598D01*
Y86400D01*
D02*
G37*
G36*
X1388539Y465449D02*
X1380450D01*
Y445860D01*
X1385950D01*
X1386941Y446057D01*
X1387781Y446618D01*
X1388342Y447459D01*
X1388539Y448450D01*
Y465449D01*
D02*
G37*
G36*
X1375450D02*
X1367361D01*
Y448450D01*
X1367558Y447459D01*
X1368119Y446618D01*
X1368959Y446057D01*
X1369950Y445860D01*
X1375450D01*
Y465449D01*
D02*
G37*
G36*
X235498Y59222D02*
X218107D01*
X218248Y57793D01*
X219394Y54016D01*
X221255Y50535D01*
X223759Y47483D01*
X226810Y44979D01*
X230292Y43118D01*
X234069Y41972D01*
X235498Y41831D01*
Y59222D01*
D02*
G37*
G36*
X264200Y466997D02*
X264079Y466982D01*
X261637Y465970D01*
X259539Y464361D01*
X257930Y462263D01*
X256918Y459821D01*
X256903Y459700D01*
X264200D01*
Y466997D01*
D02*
G37*
G36*
X1309550Y488590D02*
X1259800D01*
Y447000D01*
X1312140D01*
Y486000D01*
X1311943Y486991D01*
X1311381Y487831D01*
X1310541Y488393D01*
X1309550Y488590D01*
D02*
G37*
G36*
X1254800D02*
X1205050D01*
X1204059Y488393D01*
X1203219Y487831D01*
X1202657Y486991D01*
X1202460Y486000D01*
Y447000D01*
X1254800D01*
Y488590D01*
D02*
G37*
G36*
X137493Y59222D02*
X120102D01*
Y41831D01*
X121531Y41972D01*
X125308Y43118D01*
X128790Y44979D01*
X131841Y47483D01*
X134345Y50535D01*
X136206Y54016D01*
X137352Y57793D01*
X137493Y59222D01*
D02*
G37*
G36*
X972225Y385398D02*
X968629D01*
X967638Y385201D01*
X966798Y384639D01*
X966236Y383799D01*
X966039Y382808D01*
Y375275D01*
X972225D01*
Y385398D01*
D02*
G37*
G36*
X257889Y59222D02*
X240498D01*
Y41831D01*
X241926Y41972D01*
X245704Y43118D01*
X249186Y44979D01*
X252237Y47483D01*
X254741Y50535D01*
X256602Y54016D01*
X257748Y57793D01*
X257889Y59222D01*
D02*
G37*
G36*
X1001776Y377969D02*
X996275D01*
Y371275D01*
X1004366D01*
Y375379D01*
X1004169Y376370D01*
X1003607Y377210D01*
X1002767Y377772D01*
X1001776Y377969D01*
D02*
G37*
G36*
X1312140Y442000D02*
X1259800D01*
Y400410D01*
X1309550D01*
X1310541Y400607D01*
X1311381Y401169D01*
X1311943Y402009D01*
X1312140Y403000D01*
Y442000D01*
D02*
G37*
G36*
X1254800D02*
X1202460D01*
Y403000D01*
X1202657Y402009D01*
X1203219Y401169D01*
X1204059Y400607D01*
X1205050Y400410D01*
X1254800D01*
Y442000D01*
D02*
G37*
G36*
X61391Y400250D02*
X50800D01*
X40209D01*
Y396146D01*
X40406Y395155D01*
X40968Y394315D01*
Y393085D01*
X40406Y392245D01*
X40209Y391254D01*
Y387150D01*
X50800D01*
X61391D01*
Y391254D01*
X61194Y392245D01*
X60632Y393085D01*
Y394315D01*
X61194Y395155D01*
X61391Y396146D01*
Y400250D01*
D02*
G37*
G36*
X1028900Y273725D02*
X1022206D01*
Y268224D01*
X1022403Y267233D01*
X1022965Y266393D01*
X1023805Y265831D01*
X1024796Y265634D01*
X1028900D01*
Y273725D01*
D02*
G37*
G36*
X1332524Y232450D02*
X1324814D01*
Y227330D01*
X1325011Y226339D01*
X1325573Y225499D01*
X1326413Y224937D01*
X1327404Y224740D01*
X1332524D01*
Y232450D01*
D02*
G37*
G36*
X387350Y249071D02*
X383695Y248590D01*
X380290Y247179D01*
X377365Y244935D01*
X375121Y242010D01*
X373710Y238605D01*
X373229Y234950D01*
X373710Y231295D01*
X375121Y227890D01*
X377365Y224965D01*
X380290Y222721D01*
X383695Y221310D01*
X387350Y220829D01*
X391005Y221310D01*
X394410Y222721D01*
X397335Y224965D01*
X399579Y227890D01*
X400990Y231295D01*
X401471Y234950D01*
X400990Y238605D01*
X399579Y242010D01*
X397335Y244935D01*
X394410Y247179D01*
X391005Y248590D01*
X387350Y249071D01*
D02*
G37*
G36*
X1314490Y229450D02*
X1297900D01*
Y217360D01*
X1311900D01*
X1312891Y217557D01*
X1313731Y218119D01*
X1314293Y218959D01*
X1314490Y219950D01*
Y229450D01*
D02*
G37*
G36*
X1241490Y240200D02*
X1234400D01*
Y225110D01*
X1238900D01*
X1239891Y225307D01*
X1240732Y225868D01*
X1241293Y226709D01*
X1241490Y227700D01*
Y240200D01*
D02*
G37*
G36*
X1229400D02*
X1222310D01*
Y227700D01*
X1222507Y226709D01*
X1223068Y225868D01*
X1223909Y225307D01*
X1224900Y225110D01*
X1229400D01*
Y240200D01*
D02*
G37*
G36*
X1345234Y232450D02*
X1337524D01*
Y224740D01*
X1342644D01*
X1343635Y224937D01*
X1344475Y225499D01*
X1345037Y226339D01*
X1345234Y227330D01*
Y232450D01*
D02*
G37*
G36*
X1292900Y229450D02*
X1276310D01*
Y219950D01*
X1276507Y218959D01*
X1277069Y218119D01*
X1277909Y217557D01*
X1278900Y217360D01*
X1292900D01*
Y229450D01*
D02*
G37*
G36*
X488950Y198271D02*
X485295Y197790D01*
X481890Y196379D01*
X478965Y194135D01*
X477002Y191576D01*
X476659Y191474D01*
X475841D01*
X475498Y191576D01*
X473535Y194135D01*
X470610Y196379D01*
X467205Y197790D01*
X463550Y198271D01*
X459895Y197790D01*
X456490Y196379D01*
X453565Y194135D01*
X451321Y191210D01*
X449910Y187805D01*
X449429Y184150D01*
X449910Y180495D01*
X451321Y177090D01*
X453565Y174165D01*
X456490Y171921D01*
X459895Y170510D01*
X463550Y170029D01*
X467205Y170510D01*
X470610Y171921D01*
X473535Y174165D01*
X475498Y176723D01*
X475841Y176826D01*
X476659D01*
X477002Y176723D01*
X478965Y174165D01*
X481890Y171921D01*
X485295Y170510D01*
X488950Y170029D01*
X492605Y170510D01*
X496010Y171921D01*
X498935Y174165D01*
X501179Y177090D01*
X502590Y180495D01*
X503071Y184150D01*
X502590Y187805D01*
X501179Y191210D01*
X498935Y194135D01*
X496010Y196379D01*
X492605Y197790D01*
X488950Y198271D01*
D02*
G37*
G36*
X118541Y198000D02*
X107950D01*
X97359D01*
Y193896D01*
X97556Y192905D01*
X97619Y192812D01*
X97929Y191863D01*
X97295Y191184D01*
X96344Y190549D01*
X95239Y188895D01*
X94851Y186944D01*
Y173736D01*
X95239Y171785D01*
X96344Y170131D01*
X97998Y169026D01*
X99949Y168638D01*
X115951D01*
X117902Y169026D01*
X119556Y170131D01*
X120661Y171785D01*
X121049Y173736D01*
Y174908D01*
X122087Y175704D01*
X123977Y177594D01*
X141994D01*
Y171598D01*
X140300D01*
X138800Y171300D01*
X137300Y171598D01*
X133800D01*
X131849Y171210D01*
X130195Y170105D01*
X129090Y168451D01*
X128702Y166500D01*
Y145500D01*
X128994Y144033D01*
Y102908D01*
X129217Y101211D01*
X129872Y99630D01*
X130914Y98272D01*
X144922Y84264D01*
X146280Y83222D01*
X147861Y82567D01*
X149558Y82344D01*
X153744D01*
X155828Y79628D01*
X158544Y77544D01*
X161706Y76235D01*
X165100Y75788D01*
X168494Y76235D01*
X171656Y77544D01*
X174372Y79628D01*
X176455Y82344D01*
X177765Y85506D01*
X178212Y88900D01*
X177765Y92294D01*
X176455Y95456D01*
X174532Y97963D01*
X174372Y98796D01*
Y98816D01*
X174532Y99649D01*
X176455Y102156D01*
X177065Y103628D01*
X178335D01*
X178944Y102156D01*
X181028Y99440D01*
X182832Y98056D01*
Y96455D01*
X182783Y96417D01*
X181093Y94215D01*
X180031Y91651D01*
X179998Y91400D01*
X200602D01*
X200569Y91651D01*
X199507Y94215D01*
X197817Y96417D01*
X197768Y96455D01*
Y98056D01*
X199572Y99440D01*
X201655Y102156D01*
X202965Y105318D01*
X203412Y108712D01*
X202965Y112106D01*
X201655Y115268D01*
X199572Y117984D01*
X196856Y120068D01*
Y120850D01*
X196633Y122547D01*
X195978Y124128D01*
X194936Y125486D01*
X188786Y131636D01*
X187428Y132678D01*
X185847Y133333D01*
X184150Y133556D01*
X174606D01*
Y141239D01*
X175153Y141569D01*
X175876Y141774D01*
X177349Y140790D01*
X179300Y140402D01*
X182800D01*
X184300Y140700D01*
X185800Y140402D01*
X189300D01*
X190800Y140700D01*
X192300Y140402D01*
X195800D01*
X197751Y140790D01*
X199405Y141895D01*
X200083Y142910D01*
X202300D01*
X203291Y143107D01*
X203800Y143447D01*
X204309Y143107D01*
X205300Y142910D01*
X207517D01*
X208195Y141895D01*
X209849Y140790D01*
X211800Y140402D01*
X215300D01*
X216800Y140700D01*
X218300Y140402D01*
X221800D01*
X223751Y140790D01*
X225405Y141895D01*
X226510Y143549D01*
X226898Y145500D01*
Y166500D01*
X226510Y168451D01*
X225405Y170105D01*
X223751Y171210D01*
X221800Y171598D01*
X218300D01*
X216800Y171300D01*
X215300Y171598D01*
X211800D01*
X209849Y171210D01*
X208195Y170105D01*
X207517Y169090D01*
X205300D01*
X204309Y168893D01*
X203800Y168552D01*
X203291Y168893D01*
X202300Y169090D01*
X200083D01*
X199405Y170105D01*
X197751Y171210D01*
X195800Y171598D01*
X192300D01*
X190800Y171300D01*
X189300Y171598D01*
X185800D01*
X184300Y171300D01*
X182800Y171598D01*
X179300D01*
X177349Y171210D01*
X175876Y170226D01*
X175153Y170431D01*
X174606Y170761D01*
Y171450D01*
X174383Y173147D01*
X173728Y174728D01*
X172689Y176081D01*
X172962Y176436D01*
X173868Y178626D01*
X174178Y180975D01*
X173868Y183325D01*
X172962Y185514D01*
X171519Y187394D01*
X169639Y188836D01*
X167449Y189743D01*
X165100Y190053D01*
X162750Y189743D01*
X160561Y188836D01*
X158681Y187394D01*
X157239Y185514D01*
X156332Y183325D01*
X156249Y182697D01*
X154968D01*
X154883Y183347D01*
X154228Y184928D01*
X153186Y186286D01*
X150686Y188786D01*
X149328Y189828D01*
X147747Y190483D01*
X146050Y190706D01*
X121261D01*
X119597Y190487D01*
X119556Y190549D01*
X118605Y191184D01*
X117971Y191863D01*
X118281Y192812D01*
X118344Y192905D01*
X118541Y193896D01*
Y198000D01*
D02*
G37*
G36*
X565150Y198271D02*
X561495Y197790D01*
X558090Y196379D01*
X555165Y194135D01*
X552921Y191210D01*
X551510Y187805D01*
X551029Y184150D01*
X551510Y180495D01*
X552921Y177090D01*
X555165Y174165D01*
X558090Y171921D01*
X561495Y170510D01*
X565150Y170029D01*
X568805Y170510D01*
X572210Y171921D01*
X575135Y174165D01*
X577379Y177090D01*
X578790Y180495D01*
X579271Y184150D01*
X578790Y187805D01*
X577379Y191210D01*
X575135Y194135D01*
X572210Y196379D01*
X568805Y197790D01*
X565150Y198271D01*
D02*
G37*
G36*
X272415Y174171D02*
X262850D01*
Y161000D01*
X275005D01*
Y171581D01*
X274808Y172572D01*
X274246Y173412D01*
X273406Y173974D01*
X272415Y174171D01*
D02*
G37*
G36*
X115951Y209694D02*
X110450D01*
Y203000D01*
X118541D01*
Y207104D01*
X118344Y208095D01*
X117782Y208935D01*
X116942Y209497D01*
X115951Y209694D01*
D02*
G37*
G36*
X105450D02*
X99949D01*
X98958Y209497D01*
X98118Y208935D01*
X97556Y208095D01*
X97359Y207104D01*
Y203000D01*
X105450D01*
Y209694D01*
D02*
G37*
G36*
X275005Y156000D02*
X262850D01*
Y142829D01*
X272415D01*
X273406Y143026D01*
X274246Y143588D01*
X274808Y144428D01*
X275005Y145419D01*
Y156000D01*
D02*
G37*
G36*
X1111925Y259725D02*
X1105739D01*
Y252192D01*
X1105936Y251201D01*
X1106498Y250361D01*
X1107338Y249799D01*
X1108329Y249602D01*
X1111925D01*
Y259725D01*
D02*
G37*
G36*
X1238900Y260289D02*
X1234400D01*
Y245200D01*
X1241490D01*
Y257700D01*
X1241293Y258691D01*
X1240732Y259531D01*
X1239891Y260092D01*
X1238900Y260289D01*
D02*
G37*
G36*
X387350Y198271D02*
X383695Y197790D01*
X380290Y196379D01*
X377365Y194135D01*
X375121Y191210D01*
X373710Y187805D01*
X373229Y184150D01*
X373710Y180495D01*
X375121Y177090D01*
X377365Y174165D01*
X380290Y171921D01*
X383695Y170510D01*
X387350Y170029D01*
X391005Y170510D01*
X394410Y171921D01*
X397335Y174165D01*
X399579Y177090D01*
X400990Y180495D01*
X401471Y184150D01*
X400990Y187805D01*
X399579Y191210D01*
X397335Y194135D01*
X394410Y196379D01*
X391005Y197790D01*
X387350Y198271D01*
D02*
G37*
G36*
X1197370Y131846D02*
X1193611Y131351D01*
X1190109Y129901D01*
X1187101Y127593D01*
X1184793Y124585D01*
X1184155Y123044D01*
X1182885D01*
X1182247Y124585D01*
X1179939Y127593D01*
X1176931Y129901D01*
X1173429Y131351D01*
X1169670Y131846D01*
X1165911Y131351D01*
X1162409Y129901D01*
X1159401Y127593D01*
X1157093Y124585D01*
X1156335Y122754D01*
X1155065D01*
X1154307Y124585D01*
X1151999Y127593D01*
X1148991Y129901D01*
X1145489Y131351D01*
X1141730Y131846D01*
X1137971Y131351D01*
X1134469Y129901D01*
X1131461Y127593D01*
X1129153Y124585D01*
X1128522Y123061D01*
X1127252D01*
X1126621Y124585D01*
X1124313Y127593D01*
X1121305Y129901D01*
X1117803Y131351D01*
X1114044Y131846D01*
X1110285Y131351D01*
X1106783Y129901D01*
X1103775Y127593D01*
X1101467Y124585D01*
X1100017Y121083D01*
X1099522Y117324D01*
X1100017Y113565D01*
X1101467Y110063D01*
X1103775Y107055D01*
X1106783Y104747D01*
X1110285Y103297D01*
X1114044Y102802D01*
X1117803Y103297D01*
X1121305Y104747D01*
X1124313Y107055D01*
X1126621Y110063D01*
X1127252Y111587D01*
X1128522D01*
X1129153Y110063D01*
X1131461Y107055D01*
X1134469Y104747D01*
X1137971Y103297D01*
X1141730Y102802D01*
X1145489Y103297D01*
X1148991Y104747D01*
X1151999Y107055D01*
X1154307Y110063D01*
X1155065Y111894D01*
X1156335D01*
X1157093Y110063D01*
X1159401Y107055D01*
X1162409Y104747D01*
X1165911Y103297D01*
X1169670Y102802D01*
X1173429Y103297D01*
X1176931Y104747D01*
X1179939Y107055D01*
X1182247Y110063D01*
X1182885Y111604D01*
X1184155D01*
X1184793Y110063D01*
X1187101Y107055D01*
X1190109Y104747D01*
X1193611Y103297D01*
X1197370Y102802D01*
X1201129Y103297D01*
X1204631Y104747D01*
X1207639Y107055D01*
X1209304Y109226D01*
X1210574Y108794D01*
Y107926D01*
X1210962Y105975D01*
X1211874Y104611D01*
X1211411Y103575D01*
X1211265Y103410D01*
X1211170Y103422D01*
X1207411Y102927D01*
X1203909Y101477D01*
X1200901Y99169D01*
X1198593Y96161D01*
X1197955Y94620D01*
X1196685D01*
X1196047Y96161D01*
X1193739Y99169D01*
X1190731Y101477D01*
X1187229Y102927D01*
X1183470Y103422D01*
X1179711Y102927D01*
X1176209Y101477D01*
X1173201Y99169D01*
X1170893Y96161D01*
X1170220Y94535D01*
X1168950D01*
X1168277Y96161D01*
X1165969Y99169D01*
X1162961Y101477D01*
X1159459Y102927D01*
X1155700Y103422D01*
X1151941Y102927D01*
X1148439Y101477D01*
X1145431Y99169D01*
X1143123Y96161D01*
X1142492Y94637D01*
X1141222D01*
X1140591Y96161D01*
X1138283Y99169D01*
X1135275Y101477D01*
X1131773Y102927D01*
X1128014Y103422D01*
X1124255Y102927D01*
X1120753Y101477D01*
X1117745Y99169D01*
X1115437Y96161D01*
X1113987Y92659D01*
X1113492Y88900D01*
X1113987Y85141D01*
X1115437Y81639D01*
X1117745Y78631D01*
X1120753Y76323D01*
X1124255Y74873D01*
X1128014Y74378D01*
X1131773Y74873D01*
X1135275Y76323D01*
X1138283Y78631D01*
X1140591Y81639D01*
X1141222Y83163D01*
X1142492D01*
X1143123Y81639D01*
X1145431Y78631D01*
X1148439Y76323D01*
X1151941Y74873D01*
X1155700Y74378D01*
X1159459Y74873D01*
X1162961Y76323D01*
X1165969Y78631D01*
X1168277Y81639D01*
X1168950Y83265D01*
X1170220D01*
X1170893Y81639D01*
X1173201Y78631D01*
X1176209Y76323D01*
X1179711Y74873D01*
X1183470Y74378D01*
X1187229Y74873D01*
X1190731Y76323D01*
X1193739Y78631D01*
X1196047Y81639D01*
X1196685Y83180D01*
X1197955D01*
X1198593Y81639D01*
X1200901Y78631D01*
X1203909Y76323D01*
X1207411Y74873D01*
X1211170Y74378D01*
X1214929Y74873D01*
X1218431Y76323D01*
X1221439Y78631D01*
X1223747Y81639D01*
X1225197Y85141D01*
X1225692Y88900D01*
X1225197Y92659D01*
X1223747Y96161D01*
X1221439Y99169D01*
X1218431Y101477D01*
X1218234Y101558D01*
X1218487Y102828D01*
X1234468D01*
X1236419Y103216D01*
X1238073Y104321D01*
X1239178Y105975D01*
X1239566Y107926D01*
Y126722D01*
X1239178Y128673D01*
X1238073Y130327D01*
X1236419Y131432D01*
X1234468Y131820D01*
X1215672D01*
X1213721Y131432D01*
X1212067Y130327D01*
X1210962Y128673D01*
X1210574Y126722D01*
Y125854D01*
X1209304Y125422D01*
X1207639Y127593D01*
X1204631Y129901D01*
X1201129Y131351D01*
X1197370Y131846D01*
D02*
G37*
G36*
X257850Y156000D02*
X245695D01*
Y145419D01*
X245892Y144428D01*
X246454Y143588D01*
X247294Y143026D01*
X248285Y142829D01*
X257850D01*
Y156000D01*
D02*
G37*
G36*
X1229400Y260289D02*
X1224900D01*
X1223909Y260092D01*
X1223068Y259531D01*
X1222507Y258691D01*
X1222310Y257700D01*
Y245200D01*
X1229400D01*
Y260289D01*
D02*
G37*
G36*
X1332524Y245160D02*
X1327404D01*
X1326413Y244963D01*
X1325573Y244401D01*
X1325011Y243561D01*
X1324814Y242570D01*
Y237450D01*
X1332524D01*
Y245160D01*
D02*
G37*
G36*
X1311900Y246540D02*
X1297900D01*
Y234450D01*
X1314490D01*
Y243950D01*
X1314293Y244941D01*
X1313731Y245781D01*
X1312891Y246343D01*
X1311900Y246540D01*
D02*
G37*
G36*
X1292900D02*
X1278900D01*
X1277909Y246343D01*
X1277069Y245781D01*
X1276507Y244941D01*
X1276310Y243950D01*
Y234450D01*
X1292900D01*
Y246540D01*
D02*
G37*
G36*
X488950Y249071D02*
X485295Y248590D01*
X481890Y247179D01*
X478965Y244935D01*
X477002Y242376D01*
X476659Y242274D01*
X475841D01*
X475498Y242376D01*
X473535Y244935D01*
X470610Y247179D01*
X467205Y248590D01*
X463550Y249071D01*
X459895Y248590D01*
X456490Y247179D01*
X453565Y244935D01*
X451321Y242010D01*
X449910Y238605D01*
X449429Y234950D01*
X449910Y231295D01*
X451321Y227890D01*
X453565Y224965D01*
X456490Y222721D01*
X459895Y221310D01*
X463550Y220829D01*
X467205Y221310D01*
X470610Y222721D01*
X473535Y224965D01*
X475498Y227523D01*
X475841Y227626D01*
X476659D01*
X477002Y227523D01*
X478965Y224965D01*
X481890Y222721D01*
X485295Y221310D01*
X488950Y220829D01*
X492605Y221310D01*
X496010Y222721D01*
X498935Y224965D01*
X501179Y227890D01*
X502590Y231295D01*
X503071Y234950D01*
X502590Y238605D01*
X501179Y242010D01*
X498935Y244935D01*
X496010Y247179D01*
X492605Y248590D01*
X488950Y249071D01*
D02*
G37*
G36*
X257850Y174171D02*
X248285D01*
X247294Y173974D01*
X246454Y173412D01*
X245892Y172572D01*
X245695Y171581D01*
Y161000D01*
X257850D01*
Y174171D01*
D02*
G37*
G36*
X1342644Y245160D02*
X1337524D01*
Y237450D01*
X1345234D01*
Y242570D01*
X1345037Y243561D01*
X1344475Y244401D01*
X1343635Y244963D01*
X1342644Y245160D01*
D02*
G37*
G36*
X269200Y466997D02*
Y459700D01*
X276497D01*
X276481Y459821D01*
X275470Y462263D01*
X273861Y464361D01*
X271763Y465970D01*
X269321Y466982D01*
X269200Y466997D01*
D02*
G37*
G36*
X1054100Y620835D02*
X1050669Y620497D01*
X1047371Y619496D01*
X1044331Y617871D01*
X1041666Y615684D01*
X1039479Y613019D01*
X1037854Y609979D01*
X1036853Y606681D01*
X1036515Y603250D01*
X1036853Y599819D01*
X1037854Y596521D01*
X1039479Y593480D01*
X1041666Y590816D01*
X1044331Y588629D01*
X1047371Y587004D01*
X1050669Y586003D01*
X1054100Y585665D01*
X1057531Y586003D01*
X1060829Y587004D01*
X1063869Y588629D01*
X1066534Y590816D01*
X1068721Y593480D01*
X1070346Y596521D01*
X1071347Y599819D01*
X1071685Y603250D01*
X1071347Y606681D01*
X1070346Y609979D01*
X1068721Y613019D01*
X1066534Y615684D01*
X1063869Y617871D01*
X1060829Y619496D01*
X1057531Y620497D01*
X1054100Y620835D01*
D02*
G37*
G36*
X1003300D02*
X999869Y620497D01*
X996571Y619496D01*
X993531Y617871D01*
X990866Y615684D01*
X988679Y613019D01*
X987054Y609979D01*
X986053Y606681D01*
X985715Y603250D01*
X986053Y599819D01*
X987054Y596521D01*
X988679Y593480D01*
X990866Y590816D01*
X993531Y588629D01*
X996571Y587004D01*
X999869Y586003D01*
X1003300Y585665D01*
X1006731Y586003D01*
X1010029Y587004D01*
X1013070Y588629D01*
X1015734Y590816D01*
X1017921Y593480D01*
X1019546Y596521D01*
X1020547Y599819D01*
X1020885Y603250D01*
X1020547Y606681D01*
X1019546Y609979D01*
X1017921Y613019D01*
X1015734Y615684D01*
X1013070Y617871D01*
X1010029Y619496D01*
X1006731Y620497D01*
X1003300Y620835D01*
D02*
G37*
G36*
X952500D02*
X949069Y620497D01*
X945771Y619496D01*
X942730Y617871D01*
X940066Y615684D01*
X937879Y613019D01*
X936254Y609979D01*
X935253Y606681D01*
X934915Y603250D01*
X935253Y599819D01*
X936254Y596521D01*
X937879Y593480D01*
X940066Y590816D01*
X942730Y588629D01*
X945771Y587004D01*
X949069Y586003D01*
X952500Y585665D01*
X955931Y586003D01*
X959229Y587004D01*
X962270Y588629D01*
X964934Y590816D01*
X967121Y593480D01*
X968746Y596521D01*
X969747Y599819D01*
X970085Y603250D01*
X969747Y606681D01*
X968746Y609979D01*
X967121Y613019D01*
X964934Y615684D01*
X962270Y617871D01*
X959229Y619496D01*
X955931Y620497D01*
X952500Y620835D01*
D02*
G37*
G36*
X1104900D02*
X1101469Y620497D01*
X1098171Y619496D01*
X1095130Y617871D01*
X1092466Y615684D01*
X1090279Y613019D01*
X1088654Y609979D01*
X1087653Y606681D01*
X1087315Y603250D01*
X1087653Y599819D01*
X1088654Y596521D01*
X1090279Y593480D01*
X1092466Y590816D01*
X1095130Y588629D01*
X1098171Y587004D01*
X1101469Y586003D01*
X1104900Y585665D01*
X1108331Y586003D01*
X1111629Y587004D01*
X1114669Y588629D01*
X1117334Y590816D01*
X1119521Y593480D01*
X1121146Y596521D01*
X1122147Y599819D01*
X1122485Y603250D01*
X1122147Y606681D01*
X1121146Y609979D01*
X1119521Y613019D01*
X1117334Y615684D01*
X1114669Y617871D01*
X1111629Y619496D01*
X1108331Y620497D01*
X1104900Y620835D01*
D02*
G37*
G36*
X522867Y600750D02*
X510500D01*
Y588383D01*
X510948Y588428D01*
X513783Y589288D01*
X516396Y590684D01*
X518686Y592564D01*
X520566Y594854D01*
X521962Y597467D01*
X522822Y600302D01*
X522867Y600750D01*
D02*
G37*
G36*
X421267D02*
X408900D01*
Y588383D01*
X409348Y588428D01*
X412183Y589288D01*
X414796Y590684D01*
X417086Y592564D01*
X418966Y594854D01*
X420362Y597467D01*
X421222Y600302D01*
X421267Y600750D01*
D02*
G37*
G36*
X1155700Y620835D02*
X1152269Y620497D01*
X1148971Y619496D01*
X1145930Y617871D01*
X1143266Y615684D01*
X1141079Y613019D01*
X1139454Y609979D01*
X1138453Y606681D01*
X1138115Y603250D01*
X1138453Y599819D01*
X1139454Y596521D01*
X1141079Y593480D01*
X1143266Y590816D01*
X1145930Y588629D01*
X1148971Y587004D01*
X1152269Y586003D01*
X1155700Y585665D01*
X1159131Y586003D01*
X1162429Y587004D01*
X1165470Y588629D01*
X1168134Y590816D01*
X1170321Y593480D01*
X1171946Y596521D01*
X1172947Y599819D01*
X1173285Y603250D01*
X1172947Y606681D01*
X1171946Y609979D01*
X1170321Y613019D01*
X1168134Y615684D01*
X1165470Y617871D01*
X1162429Y619496D01*
X1159131Y620497D01*
X1155700Y620835D01*
D02*
G37*
G36*
X355600D02*
X352169Y620497D01*
X348871Y619496D01*
X345830Y617871D01*
X343166Y615684D01*
X340979Y613019D01*
X339354Y609979D01*
X338353Y606681D01*
X338015Y603250D01*
X338353Y599819D01*
X339354Y596521D01*
X340979Y593480D01*
X343166Y590816D01*
X345830Y588629D01*
X348871Y587004D01*
X352169Y586003D01*
X355600Y585665D01*
X359031Y586003D01*
X362329Y587004D01*
X365369Y588629D01*
X368034Y590816D01*
X370221Y593480D01*
X371846Y596521D01*
X372847Y599819D01*
X373185Y603250D01*
X372847Y606681D01*
X371846Y609979D01*
X370221Y613019D01*
X368034Y615684D01*
X365369Y617871D01*
X362329Y619496D01*
X359031Y620497D01*
X355600Y620835D01*
D02*
G37*
G36*
X221107Y582091D02*
X212050D01*
Y574000D01*
X223697D01*
Y579501D01*
X223500Y580492D01*
X222938Y581332D01*
X222098Y581894D01*
X221107Y582091D01*
D02*
G37*
G36*
X207050D02*
X197993D01*
X197002Y581894D01*
X196162Y581332D01*
X195600Y580492D01*
X195403Y579501D01*
Y574000D01*
X207050D01*
Y582091D01*
D02*
G37*
G36*
X457200Y620835D02*
X453769Y620497D01*
X450471Y619496D01*
X447430Y617871D01*
X444766Y615684D01*
X442579Y613019D01*
X440954Y609979D01*
X439953Y606681D01*
X439615Y603250D01*
X439953Y599819D01*
X440954Y596521D01*
X442579Y593480D01*
X444766Y590816D01*
X447430Y588629D01*
X450471Y587004D01*
X453769Y586003D01*
X457200Y585665D01*
X460631Y586003D01*
X463929Y587004D01*
X466969Y588629D01*
X469634Y590816D01*
X471821Y593480D01*
X473446Y596521D01*
X474447Y599819D01*
X474785Y603250D01*
X474447Y606681D01*
X473446Y609979D01*
X471821Y613019D01*
X469634Y615684D01*
X466969Y617871D01*
X463929Y619496D01*
X460631Y620497D01*
X457200Y620835D01*
D02*
G37*
G36*
X901700D02*
X898269Y620497D01*
X894971Y619496D01*
X891930Y617871D01*
X889266Y615684D01*
X887079Y613019D01*
X885454Y609979D01*
X884453Y606681D01*
X884115Y603250D01*
X884453Y599819D01*
X885454Y596521D01*
X887079Y593480D01*
X889266Y590816D01*
X891930Y588629D01*
X894971Y587004D01*
X898269Y586003D01*
X901700Y585665D01*
X905131Y586003D01*
X908429Y587004D01*
X911469Y588629D01*
X914134Y590816D01*
X916321Y593480D01*
X917946Y596521D01*
X918947Y599819D01*
X919285Y603250D01*
X918947Y606681D01*
X917946Y609979D01*
X916321Y613019D01*
X914134Y615684D01*
X911469Y617871D01*
X908429Y619496D01*
X905131Y620497D01*
X901700Y620835D01*
D02*
G37*
G36*
X850900D02*
X847469Y620497D01*
X844171Y619496D01*
X841131Y617871D01*
X838466Y615684D01*
X836279Y613019D01*
X834654Y609979D01*
X833653Y606681D01*
X833315Y603250D01*
X833653Y599819D01*
X834654Y596521D01*
X836279Y593480D01*
X838466Y590816D01*
X841131Y588629D01*
X844171Y587004D01*
X847469Y586003D01*
X850900Y585665D01*
X854331Y586003D01*
X857629Y587004D01*
X860669Y588629D01*
X863334Y590816D01*
X865521Y593480D01*
X867146Y596521D01*
X868147Y599819D01*
X868485Y603250D01*
X868147Y606681D01*
X867146Y609979D01*
X865521Y613019D01*
X863334Y615684D01*
X860669Y617871D01*
X857629Y619496D01*
X854331Y620497D01*
X850900Y620835D01*
D02*
G37*
G36*
X558800D02*
X555369Y620497D01*
X552071Y619496D01*
X549030Y617871D01*
X546366Y615684D01*
X544179Y613019D01*
X542554Y609979D01*
X541553Y606681D01*
X541215Y603250D01*
X541553Y599819D01*
X542554Y596521D01*
X544179Y593480D01*
X546366Y590816D01*
X549030Y588629D01*
X552071Y587004D01*
X555369Y586003D01*
X558800Y585665D01*
X562231Y586003D01*
X565529Y587004D01*
X568569Y588629D01*
X571234Y590816D01*
X573421Y593480D01*
X575046Y596521D01*
X576047Y599819D01*
X576385Y603250D01*
X576047Y606681D01*
X575046Y609979D01*
X573421Y613019D01*
X571234Y615684D01*
X568569Y617871D01*
X565529Y619496D01*
X562231Y620497D01*
X558800Y620835D01*
D02*
G37*
G36*
X505500Y618116D02*
X505052Y618072D01*
X502217Y617212D01*
X499604Y615816D01*
X497314Y613936D01*
X495434Y611646D01*
X494038Y609033D01*
X493178Y606198D01*
X493134Y605750D01*
X505500D01*
Y618116D01*
D02*
G37*
G36*
X403900D02*
X403452Y618072D01*
X400617Y617212D01*
X398004Y615816D01*
X395714Y613936D01*
X393834Y611646D01*
X392438Y609033D01*
X391578Y606198D01*
X391534Y605750D01*
X403900D01*
Y618116D01*
D02*
G37*
G36*
X1209000D02*
Y605750D01*
X1221367D01*
X1221322Y606198D01*
X1220462Y609033D01*
X1219066Y611646D01*
X1217186Y613936D01*
X1214896Y615816D01*
X1212283Y617212D01*
X1209448Y618072D01*
X1209000Y618116D01*
D02*
G37*
G36*
X607100D02*
X606652Y618072D01*
X603817Y617212D01*
X601204Y615816D01*
X598914Y613936D01*
X597034Y611646D01*
X595638Y609033D01*
X594778Y606198D01*
X594734Y605750D01*
X607100D01*
Y618116D01*
D02*
G37*
G36*
X612100D02*
Y605750D01*
X624467D01*
X624422Y606198D01*
X623562Y609033D01*
X622166Y611646D01*
X620286Y613936D01*
X617996Y615816D01*
X615383Y617212D01*
X612548Y618072D01*
X612100Y618116D01*
D02*
G37*
G36*
X510500D02*
Y605750D01*
X522867D01*
X522822Y606198D01*
X521962Y609033D01*
X520566Y611646D01*
X518686Y613936D01*
X516396Y615816D01*
X513783Y617212D01*
X510948Y618072D01*
X510500Y618116D01*
D02*
G37*
G36*
X408900D02*
Y605750D01*
X421267D01*
X421222Y606198D01*
X420362Y609033D01*
X418966Y611646D01*
X417086Y613936D01*
X414796Y615816D01*
X412183Y617212D01*
X409348Y618072D01*
X408900Y618116D01*
D02*
G37*
G36*
X1221367Y600750D02*
X1209000D01*
Y588383D01*
X1209448Y588428D01*
X1212283Y589288D01*
X1214896Y590684D01*
X1217186Y592564D01*
X1219066Y594854D01*
X1220462Y597467D01*
X1221322Y600302D01*
X1221367Y600750D01*
D02*
G37*
G36*
X1204000D02*
X1191633D01*
X1191678Y600302D01*
X1192538Y597467D01*
X1193934Y594854D01*
X1195814Y592564D01*
X1198104Y590684D01*
X1200717Y589288D01*
X1203552Y588428D01*
X1204000Y588383D01*
Y600750D01*
D02*
G37*
G36*
X624467Y600750D02*
X612100D01*
Y588383D01*
X612548Y588428D01*
X615383Y589288D01*
X617996Y590684D01*
X620286Y592564D01*
X622166Y594854D01*
X623562Y597467D01*
X624422Y600302D01*
X624467Y600750D01*
D02*
G37*
G36*
X403900D02*
X391534D01*
X391578Y600302D01*
X392438Y597467D01*
X393834Y594854D01*
X395714Y592564D01*
X398004Y590684D01*
X400617Y589288D01*
X403452Y588428D01*
X403900Y588383D01*
Y600750D01*
D02*
G37*
G36*
X1204000Y618116D02*
X1203552Y618072D01*
X1200717Y617212D01*
X1198104Y615816D01*
X1195814Y613936D01*
X1193934Y611646D01*
X1192538Y609033D01*
X1191678Y606198D01*
X1191633Y605750D01*
X1204000D01*
Y618116D01*
D02*
G37*
G36*
X607100Y600750D02*
X594734D01*
X594778Y600302D01*
X595638Y597467D01*
X597034Y594854D01*
X598914Y592564D01*
X601204Y590684D01*
X603817Y589288D01*
X606652Y588428D01*
X607100Y588383D01*
Y600750D01*
D02*
G37*
G36*
X505500D02*
X493134D01*
X493178Y600302D01*
X494038Y597467D01*
X495434Y594854D01*
X497314Y592564D01*
X499604Y590684D01*
X502217Y589288D01*
X505052Y588428D01*
X505500Y588383D01*
Y600750D01*
D02*
G37*
G36*
X521240Y464200D02*
X515400D01*
Y461110D01*
X518650D01*
X519641Y461307D01*
X520481Y461869D01*
X521043Y462709D01*
X521240Y463700D01*
Y464200D01*
D02*
G37*
G36*
X537250Y492800D02*
X529448D01*
X529481Y492548D01*
X530543Y489985D01*
X532233Y487783D01*
X534435Y486093D01*
X536998Y485031D01*
X537250Y484998D01*
Y492800D01*
D02*
G37*
G36*
X435650D02*
X427848D01*
X427881Y492548D01*
X428943Y489985D01*
X430633Y487783D01*
X432835Y486093D01*
X435398Y485031D01*
X435650Y484998D01*
Y492800D01*
D02*
G37*
G36*
X448452D02*
X440650D01*
Y484998D01*
X440901Y485031D01*
X443465Y486093D01*
X445667Y487783D01*
X447357Y489985D01*
X448419Y492548D01*
X448452Y492800D01*
D02*
G37*
G36*
X510400Y464200D02*
X504560D01*
Y463700D01*
X504757Y462709D01*
X505319Y461869D01*
X506159Y461307D01*
X507150Y461110D01*
X510400D01*
Y464200D01*
D02*
G37*
G36*
X213502Y492800D02*
X205700D01*
Y484998D01*
X205951Y485031D01*
X208515Y486093D01*
X210717Y487783D01*
X212407Y489985D01*
X213469Y492548D01*
X213502Y492800D01*
D02*
G37*
G36*
X417050Y472290D02*
X413800D01*
Y469200D01*
X419640D01*
Y469700D01*
X419443Y470691D01*
X418881Y471531D01*
X418041Y472093D01*
X417050Y472290D01*
D02*
G37*
G36*
X510400D02*
X507150D01*
X506159Y472093D01*
X505319Y471531D01*
X504757Y470691D01*
X504560Y469700D01*
Y469200D01*
X510400D01*
Y472290D01*
D02*
G37*
G36*
X408800D02*
X405550D01*
X404559Y472093D01*
X403719Y471531D01*
X403157Y470691D01*
X402960Y469700D01*
Y469200D01*
X408800D01*
Y472290D01*
D02*
G37*
G36*
X1385950Y490039D02*
X1380450D01*
Y470449D01*
X1388539D01*
Y487449D01*
X1388342Y488440D01*
X1387781Y489280D01*
X1386941Y489841D01*
X1385950Y490039D01*
D02*
G37*
G36*
X1375450D02*
X1369950D01*
X1368959Y489841D01*
X1368119Y489280D01*
X1367558Y488440D01*
X1367361Y487449D01*
Y470449D01*
X1375450D01*
Y490039D01*
D02*
G37*
G36*
X518650Y472290D02*
X515400D01*
Y469200D01*
X521240D01*
Y469700D01*
X521043Y470691D01*
X520481Y471531D01*
X519641Y472093D01*
X518650Y472290D01*
D02*
G37*
G36*
X550052Y492800D02*
X542250D01*
Y484998D01*
X542501Y485031D01*
X545065Y486093D01*
X547267Y487783D01*
X548957Y489985D01*
X550019Y492548D01*
X550052Y492800D01*
D02*
G37*
G36*
X157857Y584599D02*
X134743D01*
X132792Y584211D01*
X131138Y583106D01*
X130033Y581452D01*
X129645Y579501D01*
Y563499D01*
X130033Y561548D01*
X131138Y559894D01*
X132792Y558789D01*
X134743Y558401D01*
X157857D01*
X159808Y558789D01*
X161462Y559894D01*
X162567Y561548D01*
X162955Y563499D01*
Y564944D01*
X168734D01*
X179880Y553798D01*
Y546118D01*
X179832D01*
X177881Y545730D01*
X177868Y545721D01*
X177855Y545730D01*
X175904Y546118D01*
X162696D01*
X160745Y545730D01*
X159091Y544625D01*
X157986Y542971D01*
X157598Y541020D01*
Y539804D01*
X157053Y539733D01*
X155472Y539078D01*
X154114Y538036D01*
X147764Y531686D01*
X146722Y530328D01*
X146067Y528747D01*
X145844Y527050D01*
Y506656D01*
X143128Y504572D01*
X141045Y501856D01*
X139735Y498694D01*
X139288Y495300D01*
X139735Y491906D01*
X140436Y490212D01*
X139731Y489156D01*
X127000D01*
X125303Y488933D01*
X123722Y488278D01*
X122364Y487236D01*
X103314Y468186D01*
X102272Y466828D01*
X101617Y465247D01*
X101394Y463550D01*
Y425941D01*
X100124Y425827D01*
X98172Y428372D01*
X95456Y430456D01*
X92294Y431765D01*
X88900Y432212D01*
X85506Y431765D01*
X82344Y430456D01*
X79628Y428372D01*
X78726Y427196D01*
X77459Y427113D01*
X77026Y427546D01*
X75668Y428588D01*
X74087Y429243D01*
X72390Y429466D01*
X63899D01*
Y429514D01*
X63511Y431465D01*
X62406Y433119D01*
X60752Y434224D01*
X58801Y434612D01*
X42799D01*
X40848Y434224D01*
X39194Y433119D01*
X38089Y431465D01*
X37701Y429514D01*
Y416306D01*
X38089Y414355D01*
X39194Y412701D01*
X40145Y412066D01*
X40780Y411387D01*
X40469Y410438D01*
X40406Y410345D01*
X40209Y409354D01*
Y405250D01*
X50800D01*
X61391D01*
Y409354D01*
X61194Y410345D01*
X61131Y410438D01*
X60820Y411387D01*
X61455Y412066D01*
X62406Y412701D01*
X63511Y414355D01*
X63899Y416306D01*
Y416354D01*
X69674D01*
X71564Y414464D01*
X72922Y413422D01*
X74503Y412767D01*
X76200Y412544D01*
X77544D01*
X79628Y409828D01*
X82344Y407744D01*
Y393700D01*
X82567Y392003D01*
X83222Y390422D01*
X84264Y389064D01*
X89978Y383350D01*
X87910Y381282D01*
X85506Y380965D01*
X82344Y379655D01*
X79628Y377572D01*
X77544Y374856D01*
X76200D01*
X74503Y374633D01*
X72922Y373978D01*
X71564Y372936D01*
X69674Y371046D01*
X63899D01*
Y371094D01*
X63511Y373045D01*
X62406Y374699D01*
X61455Y375334D01*
X60820Y376013D01*
X61131Y376962D01*
X61194Y377055D01*
X61391Y378046D01*
Y382150D01*
X50800D01*
X40209D01*
Y378046D01*
X40406Y377055D01*
X40469Y376962D01*
X40780Y376013D01*
X40145Y375334D01*
X39194Y374699D01*
X38089Y373045D01*
X37701Y371094D01*
Y357886D01*
X38089Y355935D01*
X39194Y354281D01*
X40848Y353176D01*
X42799Y352788D01*
X58801D01*
X60752Y353176D01*
X62406Y354281D01*
X63511Y355935D01*
X63899Y357886D01*
Y357934D01*
X72390D01*
X74087Y358157D01*
X75668Y358812D01*
X77026Y359854D01*
X77459Y360287D01*
X78726Y360204D01*
X79628Y359028D01*
X82344Y356945D01*
X85506Y355635D01*
X88900Y355188D01*
X90305Y355373D01*
X90898Y354170D01*
X84264Y347536D01*
X83222Y346178D01*
X82567Y344597D01*
X82344Y342900D01*
Y317469D01*
X81288Y316764D01*
X79594Y317465D01*
X76200Y317912D01*
X72806Y317465D01*
X69644Y316155D01*
X66928Y314072D01*
X64844Y311356D01*
X63535Y308194D01*
X63088Y304800D01*
X63535Y301406D01*
X64844Y298244D01*
X66928Y295528D01*
X69644Y293444D01*
X71231Y292787D01*
Y291413D01*
X69644Y290756D01*
X66928Y288672D01*
X64844Y285956D01*
X63535Y282794D01*
X63088Y279400D01*
X63535Y276006D01*
X64844Y272844D01*
X66928Y270128D01*
X69222Y268368D01*
X68791Y267098D01*
X68200D01*
X66249Y266710D01*
X64595Y265605D01*
X63490Y263951D01*
X63102Y262000D01*
Y246000D01*
X63490Y244049D01*
X64595Y242395D01*
X66249Y241290D01*
X68200Y240902D01*
X69696D01*
X69867Y239603D01*
X70522Y238022D01*
X71564Y236664D01*
X77914Y230314D01*
X79272Y229272D01*
X80853Y228617D01*
X82550Y228394D01*
X114300D01*
X115997Y228617D01*
X117578Y229272D01*
X118936Y230314D01*
X126541Y237919D01*
X127992D01*
X128931Y236649D01*
X128702Y235500D01*
Y214500D01*
X129090Y212549D01*
X130195Y210895D01*
X131849Y209790D01*
X133800Y209402D01*
X137300D01*
X138800Y209700D01*
X140300Y209402D01*
X143800D01*
X145300Y209700D01*
X146800Y209402D01*
X150300D01*
X151800Y209700D01*
X153300Y209402D01*
X156800D01*
X158300Y209700D01*
X159800Y209402D01*
X163300D01*
X164800Y209700D01*
X166300Y209402D01*
X169800D01*
X171300Y209700D01*
X172800Y209402D01*
X176300D01*
X178251Y209790D01*
X179905Y210895D01*
X180381Y211608D01*
X181719D01*
X182195Y210895D01*
X183849Y209790D01*
X185800Y209402D01*
X189300D01*
X190800Y209700D01*
X192300Y209402D01*
X193994D01*
Y205850D01*
X194217Y204153D01*
X194872Y202572D01*
X195914Y201214D01*
X204914Y192214D01*
X206272Y191172D01*
X207853Y190517D01*
X209550Y190294D01*
X254000D01*
X255697Y190517D01*
X257278Y191172D01*
X258636Y192214D01*
X264986Y198564D01*
X266028Y199922D01*
X266683Y201503D01*
X266906Y203200D01*
Y204325D01*
X272415D01*
X274366Y204713D01*
X276020Y205818D01*
X277125Y207472D01*
X277513Y209423D01*
Y235585D01*
X277125Y237536D01*
X276020Y239190D01*
X274366Y240295D01*
X272415Y240683D01*
X270533D01*
X270280Y241953D01*
X273004Y243081D01*
X275615Y245085D01*
X275853Y245100D01*
X282369Y238584D01*
Y160786D01*
X282592Y159089D01*
X283247Y157508D01*
X284289Y156150D01*
X375964Y64475D01*
X377322Y63433D01*
X378903Y62778D01*
X380600Y62554D01*
X588574D01*
X593519Y57609D01*
Y46765D01*
X592564Y45927D01*
X590400Y46212D01*
X587006Y45765D01*
X583844Y44455D01*
X581128Y42372D01*
X579368Y40078D01*
X578098Y40509D01*
Y41100D01*
X577710Y43051D01*
X576605Y44705D01*
X574951Y45810D01*
X573000Y46198D01*
X557000D01*
X555049Y45810D01*
X553395Y44705D01*
X552290Y43051D01*
X551902Y41100D01*
Y25100D01*
X552290Y23149D01*
X553395Y21495D01*
X555049Y20390D01*
X557000Y20002D01*
X573000D01*
X574951Y20390D01*
X576605Y21495D01*
X577710Y23149D01*
X578098Y25100D01*
Y25691D01*
X579368Y26123D01*
X581128Y23828D01*
X583844Y21745D01*
X587006Y20435D01*
X590400Y19988D01*
X593794Y20435D01*
X596956Y21745D01*
X599672Y23828D01*
X601755Y26544D01*
X602413Y28131D01*
X603787D01*
X604445Y26544D01*
X606528Y23828D01*
X609244Y21745D01*
X612406Y20435D01*
X615800Y19988D01*
X619194Y20435D01*
X622356Y21745D01*
X625072Y23828D01*
X627155Y26544D01*
X627813Y28131D01*
X629187D01*
X629845Y26544D01*
X631928Y23828D01*
X634644Y21745D01*
X637806Y20435D01*
X641200Y19988D01*
X644594Y20435D01*
X647756Y21745D01*
X650472Y23828D01*
X652555Y26544D01*
X653213Y28131D01*
X654587D01*
X655245Y26544D01*
X657328Y23828D01*
X660044Y21745D01*
X663206Y20435D01*
X666600Y19988D01*
X669994Y20435D01*
X673156Y21745D01*
X675872Y23828D01*
X677955Y26544D01*
X678613Y28131D01*
X679987D01*
X680645Y26544D01*
X682728Y23828D01*
X685444Y21745D01*
X688606Y20435D01*
X692000Y19988D01*
X695394Y20435D01*
X698556Y21745D01*
X701272Y23828D01*
X703355Y26544D01*
X704013Y28131D01*
X705387D01*
X706044Y26544D01*
X708128Y23828D01*
X710844Y21745D01*
X714006Y20435D01*
X717400Y19988D01*
X720794Y20435D01*
X723956Y21745D01*
X726672Y23828D01*
X728755Y26544D01*
X729413Y28131D01*
X730787D01*
X731444Y26544D01*
X733528Y23828D01*
X736244Y21745D01*
X739406Y20435D01*
X742800Y19988D01*
X746194Y20435D01*
X749356Y21745D01*
X752072Y23828D01*
X754155Y26544D01*
X754813Y28131D01*
X756187D01*
X756844Y26544D01*
X758928Y23828D01*
X761644Y21745D01*
X764806Y20435D01*
X768200Y19988D01*
X771594Y20435D01*
X774756Y21745D01*
X777472Y23828D01*
X779555Y26544D01*
X780213Y28131D01*
X781587D01*
X782244Y26544D01*
X784328Y23828D01*
X787044Y21745D01*
X790206Y20435D01*
X793600Y19988D01*
X796994Y20435D01*
X800156Y21745D01*
X802872Y23828D01*
X804955Y26544D01*
X805613Y28131D01*
X806987D01*
X807645Y26544D01*
X809728Y23828D01*
X812444Y21745D01*
X815606Y20435D01*
X819000Y19988D01*
X822394Y20435D01*
X825556Y21745D01*
X828272Y23828D01*
X830355Y26544D01*
X831665Y29706D01*
X832112Y33100D01*
X831665Y36494D01*
X830355Y39656D01*
X828272Y42372D01*
X825556Y44455D01*
Y44600D01*
X825333Y46297D01*
X824678Y47878D01*
X823636Y49236D01*
X806156Y66716D01*
Y140156D01*
X805933Y141853D01*
X805278Y143434D01*
X804236Y144792D01*
X767292Y181736D01*
X765934Y182778D01*
X764353Y183433D01*
X762656Y183656D01*
X696704D01*
X695008Y183433D01*
X693427Y182778D01*
X692069Y181736D01*
X639999Y129667D01*
X405683D01*
X349481Y185869D01*
Y234993D01*
X363411Y248923D01*
X364453Y250281D01*
X365108Y251862D01*
X365331Y253559D01*
Y317260D01*
X366601Y318171D01*
X368300Y317947D01*
X370649Y318257D01*
X372839Y319163D01*
X374540Y320469D01*
X593725D01*
X595422Y320692D01*
X597003Y321347D01*
X598361Y322389D01*
X693841Y417869D01*
X727057D01*
Y417821D01*
X727445Y415870D01*
X727454Y415857D01*
X727445Y415844D01*
X727057Y413893D01*
Y400685D01*
X727445Y398734D01*
X728550Y397080D01*
X728776Y396929D01*
X728705Y396432D01*
X728333Y395698D01*
X725100D01*
X723149Y395310D01*
X721495Y394205D01*
X720390Y392551D01*
X720002Y390600D01*
Y377088D01*
X718732Y376409D01*
X717977Y376914D01*
X716026Y377302D01*
X700024D01*
X698073Y376914D01*
X696419Y375809D01*
X695314Y374155D01*
X694926Y372204D01*
Y358996D01*
X695314Y357045D01*
X696333Y355520D01*
X695314Y353995D01*
X694926Y352044D01*
Y338836D01*
X695314Y336885D01*
X696419Y335231D01*
X698073Y334126D01*
X700024Y333738D01*
X716026D01*
X717977Y334126D01*
X718732Y334631D01*
X720002Y333952D01*
Y320600D01*
X720042Y320400D01*
Y294695D01*
X711807Y286460D01*
X593725D01*
X591898Y286220D01*
X590195Y285515D01*
X588733Y284392D01*
X579208Y274867D01*
X578086Y273405D01*
X577380Y271702D01*
X577140Y269875D01*
Y244298D01*
X575937Y243890D01*
X575135Y244935D01*
X572210Y247179D01*
X568805Y248590D01*
X565150Y249071D01*
X561495Y248590D01*
X558090Y247179D01*
X555165Y244935D01*
X552921Y242010D01*
X551510Y238605D01*
X551029Y234950D01*
X551510Y231295D01*
X552921Y227890D01*
X555165Y224965D01*
X558090Y222721D01*
X561495Y221310D01*
X565150Y220829D01*
X568805Y221310D01*
X572210Y222721D01*
X575135Y224965D01*
X575937Y226010D01*
X577140Y225602D01*
Y215900D01*
X577380Y214073D01*
X578086Y212370D01*
X579208Y210908D01*
X585558Y204558D01*
X587020Y203435D01*
X588723Y202730D01*
X588774Y202723D01*
X588871Y202490D01*
X591115Y199565D01*
X594040Y197321D01*
X597445Y195910D01*
X601100Y195429D01*
X618100D01*
X621755Y195910D01*
X625160Y197321D01*
X628085Y199565D01*
X630329Y202490D01*
X631740Y205895D01*
X632221Y209550D01*
X631740Y213205D01*
X630329Y216610D01*
X628085Y219535D01*
X625527Y221498D01*
X625424Y221841D01*
Y222659D01*
X625527Y223002D01*
X628085Y224965D01*
X630329Y227890D01*
X714375D01*
X716202Y228130D01*
X717905Y228836D01*
X719367Y229958D01*
X720490Y231420D01*
X720501Y231448D01*
X743128Y254075D01*
X770064Y227139D01*
X771422Y226097D01*
X773003Y225442D01*
X774700Y225219D01*
X863600D01*
X865297Y225442D01*
X866878Y226097D01*
X868236Y227139D01*
X873561Y232464D01*
X874603Y233822D01*
X875062Y234932D01*
X875529D01*
X877480Y235320D01*
X879134Y236425D01*
X880239Y238079D01*
X880627Y240030D01*
Y241094D01*
X962025D01*
X963722Y241317D01*
X965303Y241972D01*
X966661Y243014D01*
X974725Y251078D01*
X982789Y243014D01*
X984147Y241972D01*
X985728Y241317D01*
X987425Y241094D01*
X1044575D01*
X1046272Y241317D01*
X1047853Y241972D01*
X1049211Y243014D01*
X1056196Y249999D01*
X1057238Y251357D01*
X1057893Y252938D01*
X1058116Y254635D01*
Y263126D01*
X1058164D01*
X1060115Y263514D01*
X1061769Y264619D01*
X1062874Y266273D01*
X1063262Y268224D01*
Y284226D01*
X1062874Y286177D01*
X1062018Y287457D01*
X1062714Y288498D01*
X1063102Y290449D01*
Y306451D01*
X1062714Y308402D01*
X1061609Y310056D01*
X1061458Y310157D01*
X1061731Y310566D01*
X1062119Y312517D01*
Y314473D01*
X1063389Y315099D01*
X1063522Y314997D01*
X1065103Y314342D01*
X1066800Y314119D01*
X1068752D01*
Y311100D01*
X1068794Y310889D01*
Y305100D01*
X1069017Y303403D01*
X1069672Y301822D01*
X1070714Y300464D01*
X1075794Y295384D01*
Y243330D01*
X1076017Y241633D01*
X1076672Y240052D01*
X1077714Y238694D01*
X1126919Y189489D01*
Y183691D01*
X1120548Y177320D01*
X1117600Y177708D01*
X1114337Y177278D01*
X1111296Y176019D01*
X1108685Y174015D01*
X1106681Y171404D01*
X1105422Y168363D01*
X1104992Y165100D01*
X1105422Y161837D01*
X1106681Y158796D01*
X1108685Y156185D01*
X1111296Y154181D01*
X1114337Y152922D01*
X1117600Y152492D01*
X1120863Y152922D01*
X1123904Y154181D01*
X1126515Y156185D01*
X1128519Y158796D01*
X1129648Y161523D01*
X1129650Y161523D01*
X1130950D01*
X1130952Y161523D01*
X1132081Y158796D01*
X1134085Y156185D01*
X1136696Y154181D01*
X1139737Y152922D01*
X1143000Y152492D01*
X1146263Y152922D01*
X1149304Y154181D01*
X1151915Y156185D01*
X1153919Y158796D01*
X1154532Y160277D01*
X1155802Y160024D01*
Y157600D01*
X1156190Y155649D01*
X1157295Y153995D01*
X1158949Y152890D01*
X1160900Y152502D01*
X1175900D01*
X1177851Y152890D01*
X1179505Y153995D01*
X1180610Y155649D01*
X1180998Y157600D01*
Y172600D01*
X1180610Y174551D01*
X1179505Y176205D01*
X1177851Y177310D01*
X1175900Y177698D01*
X1165074D01*
X1159081Y183691D01*
Y190126D01*
X1158858Y191822D01*
X1158203Y193403D01*
X1157161Y194761D01*
X1100906Y251016D01*
Y294709D01*
X1102058Y295861D01*
X1103231Y295375D01*
Y280416D01*
X1103619Y278465D01*
X1104724Y276811D01*
X1106378Y275706D01*
X1106573Y275667D01*
X1106842Y274319D01*
X1106498Y274089D01*
X1105936Y273249D01*
X1105739Y272258D01*
Y264725D01*
X1114425D01*
Y262225D01*
X1116925D01*
Y249602D01*
X1120521D01*
X1121512Y249799D01*
X1122352Y250361D01*
X1122914Y251201D01*
X1123111Y252192D01*
Y255394D01*
X1124381Y256180D01*
X1125855Y255887D01*
X1141095D01*
X1143046Y256275D01*
X1144700Y257380D01*
X1145805Y259034D01*
X1146193Y260985D01*
Y263796D01*
X1150811Y268414D01*
X1151853Y269772D01*
X1152508Y271353D01*
X1152731Y273050D01*
Y295275D01*
X1152508Y296972D01*
X1152371Y297302D01*
X1153342Y298277D01*
X1154031Y297996D01*
Y280192D01*
X1154419Y278241D01*
X1155257Y276987D01*
X1155430Y276113D01*
X1155257Y275238D01*
X1154419Y273985D01*
X1154031Y272034D01*
Y251968D01*
X1154419Y250017D01*
X1155524Y248363D01*
X1157178Y247258D01*
X1159129Y246870D01*
X1171321D01*
X1173272Y247258D01*
X1174926Y248363D01*
X1176031Y250017D01*
X1176419Y251968D01*
Y256288D01*
X1176504Y256323D01*
X1177862Y257365D01*
X1182561Y262064D01*
X1183603Y263422D01*
X1184258Y265003D01*
X1184481Y266700D01*
Y330200D01*
X1184258Y331897D01*
X1183603Y333478D01*
X1182561Y334836D01*
X1163861Y353536D01*
X1162503Y354578D01*
X1160922Y355233D01*
X1159225Y355456D01*
X1123600D01*
X1121903Y355233D01*
X1120322Y354578D01*
X1118964Y353536D01*
X1111250Y345822D01*
X1101662Y355410D01*
X1100304Y356452D01*
X1098723Y357107D01*
X1097026Y357330D01*
X1062119D01*
Y360807D01*
X1062888Y361744D01*
X1095000D01*
X1096697Y361967D01*
X1098278Y362622D01*
X1099636Y363664D01*
X1105986Y370014D01*
X1107028Y371372D01*
X1107683Y372953D01*
X1107906Y374650D01*
Y375002D01*
X1109350D01*
X1111100Y375350D01*
X1112850Y375002D01*
X1115850D01*
X1117600Y375350D01*
X1119350Y375002D01*
X1122350D01*
X1124100Y375350D01*
X1125850Y375002D01*
X1128850D01*
X1130600Y375350D01*
X1132350Y375002D01*
X1135350D01*
X1137100Y375350D01*
X1138850Y375002D01*
X1141850D01*
X1143600Y375350D01*
X1145350Y375002D01*
X1148350D01*
X1150100Y375350D01*
X1151850Y375002D01*
X1154850D01*
X1156600Y375350D01*
X1158350Y375002D01*
X1161350D01*
X1163301Y375390D01*
X1164955Y376495D01*
X1166060Y378149D01*
X1166448Y380100D01*
Y400100D01*
X1166406Y400311D01*
Y407560D01*
X1166183Y409257D01*
X1165528Y410838D01*
X1164486Y412196D01*
X1162256Y414426D01*
Y419210D01*
X1163561Y420911D01*
X1164468Y423101D01*
X1164778Y425450D01*
X1164468Y427799D01*
X1163561Y429989D01*
X1162119Y431869D01*
X1160239Y433312D01*
X1158049Y434218D01*
X1155700Y434528D01*
X1154176Y434327D01*
X1152906Y435317D01*
Y485600D01*
X1152683Y487297D01*
X1152028Y488878D01*
X1150986Y490236D01*
X1141286Y499936D01*
X1140790Y500316D01*
X1141655Y501444D01*
X1142965Y504606D01*
X1143412Y508000D01*
X1142965Y511394D01*
X1141655Y514556D01*
X1139572Y517272D01*
X1136856Y519356D01*
X1133694Y520665D01*
X1130300Y521112D01*
X1126906Y520665D01*
X1123744Y519356D01*
X1121028Y517272D01*
X1118944Y514556D01*
X1118287Y512969D01*
X1116913D01*
X1116255Y514556D01*
X1114172Y517272D01*
X1111456Y519356D01*
X1108294Y520665D01*
X1104900Y521112D01*
X1101506Y520665D01*
X1098344Y519356D01*
X1095628Y517272D01*
X1093868Y514977D01*
X1092598Y515409D01*
Y516000D01*
X1092210Y517951D01*
X1091105Y519605D01*
X1089451Y520710D01*
X1087500Y521098D01*
X1071500D01*
X1069549Y520710D01*
X1067895Y519605D01*
X1066790Y517951D01*
X1066402Y516000D01*
Y500000D01*
X1066790Y498049D01*
X1067895Y496395D01*
X1068584Y495935D01*
Y494665D01*
X1067895Y494205D01*
X1066790Y492551D01*
X1066402Y490600D01*
Y474600D01*
X1066790Y472649D01*
X1067895Y470995D01*
X1069549Y469890D01*
X1071500Y469502D01*
X1087500D01*
X1089451Y469890D01*
X1091105Y470995D01*
X1092210Y472649D01*
X1092598Y474600D01*
Y475191D01*
X1093868Y475622D01*
X1095628Y473328D01*
X1098344Y471245D01*
X1101506Y469935D01*
X1104900Y469488D01*
X1108294Y469935D01*
X1109828Y468401D01*
X1109202Y467230D01*
X1107821Y467505D01*
X1095629D01*
X1093678Y467117D01*
X1092024Y466012D01*
X1091368Y465030D01*
X1089856D01*
X1089201Y466012D01*
X1087547Y467117D01*
X1085596Y467505D01*
X1073404D01*
X1071453Y467117D01*
X1069799Y466012D01*
X1068694Y464358D01*
X1068306Y462407D01*
Y442341D01*
X1068694Y440390D01*
X1069532Y439137D01*
X1069705Y438262D01*
X1069532Y437388D01*
X1068694Y436134D01*
X1068306Y434183D01*
Y414117D01*
X1068694Y412166D01*
X1069799Y410512D01*
X1071453Y409407D01*
X1072944Y409111D01*
Y406400D01*
X1073121Y405053D01*
X1071899Y404810D01*
X1070245Y403705D01*
X1069140Y402051D01*
X1069057Y401633D01*
X1067884Y401147D01*
X1067608Y401331D01*
X1065657Y401719D01*
X1045591D01*
X1043640Y401331D01*
X1041986Y400226D01*
X1041038D01*
X1039384Y401331D01*
X1037433Y401719D01*
X1017367D01*
X1015416Y401331D01*
X1013762Y400226D01*
X1012657Y398572D01*
X1012269Y396621D01*
Y384429D01*
X1012657Y382478D01*
X1013762Y380824D01*
X1015416Y379719D01*
X1016196Y379564D01*
X1016614Y378186D01*
X1011364Y372936D01*
X1010322Y371578D01*
X1009667Y369997D01*
X1009444Y368300D01*
Y327025D01*
X1009667Y325328D01*
X1010322Y323747D01*
X1011364Y322389D01*
X1015839Y317914D01*
X1017197Y316872D01*
X1017506Y316744D01*
Y312517D01*
X1017894Y310566D01*
X1018999Y308912D01*
X1020653Y307807D01*
X1022221Y307495D01*
X1022243Y307442D01*
X1022046Y306451D01*
Y300950D01*
X1031240D01*
Y295950D01*
X1022046D01*
Y290449D01*
X1022243Y289458D01*
X1022805Y288618D01*
X1023645Y288056D01*
X1024084Y287969D01*
Y286674D01*
X1023805Y286619D01*
X1022965Y286057D01*
X1022403Y285217D01*
X1022206Y284226D01*
Y278725D01*
X1031400D01*
Y276225D01*
X1033900D01*
Y265634D01*
X1038004D01*
X1038995Y265831D01*
X1039088Y265894D01*
X1040037Y266204D01*
X1040716Y265570D01*
X1041351Y264619D01*
X1043005Y263514D01*
X1044956Y263126D01*
X1045004D01*
Y257351D01*
X1041859Y254206D01*
X990141D01*
X981281Y263066D01*
Y329512D01*
X982772Y329808D01*
X984426Y330913D01*
X985531Y332567D01*
X985919Y334518D01*
Y336913D01*
X1001776D01*
X1003727Y337301D01*
X1005381Y338406D01*
X1006486Y340060D01*
X1006874Y342011D01*
Y355219D01*
X1006486Y357170D01*
X1005381Y358824D01*
X1004430Y359459D01*
X1003795Y360138D01*
X1004106Y361087D01*
X1004169Y361180D01*
X1004366Y362171D01*
Y366275D01*
X993775D01*
Y368775D01*
X991275D01*
Y377969D01*
X985774D01*
X984783Y377772D01*
X984681Y377703D01*
X983411Y378382D01*
Y382808D01*
X983214Y383799D01*
X982652Y384639D01*
X981812Y385201D01*
X980821Y385398D01*
X977225D01*
Y372775D01*
X974725D01*
Y370275D01*
X966039D01*
Y362742D01*
X966236Y361751D01*
X966798Y360911D01*
X967142Y360681D01*
X966873Y359333D01*
X966678Y359294D01*
X965024Y358189D01*
X963919Y356535D01*
X963531Y354584D01*
Y351107D01*
X906526D01*
X904829Y350884D01*
X903248Y350229D01*
X901890Y349187D01*
X884364Y331661D01*
X883322Y330303D01*
X882667Y328722D01*
X882444Y327025D01*
Y326860D01*
X881444Y326325D01*
X881174Y326325D01*
X879300Y326698D01*
X873300D01*
X871349Y326310D01*
X869950Y325375D01*
X868551Y326310D01*
X866600Y326698D01*
X860600D01*
X858649Y326310D01*
X858394Y326139D01*
X857625Y326488D01*
X857170Y326849D01*
X856578Y328278D01*
X855536Y329636D01*
X850756Y334416D01*
Y353871D01*
X850533Y355567D01*
X849878Y357149D01*
X848836Y358506D01*
X831931Y375411D01*
X830574Y376453D01*
X828992Y377108D01*
X827296Y377331D01*
X810961D01*
X806656Y381636D01*
Y384340D01*
X807656Y384874D01*
X807926Y384875D01*
X809800Y384502D01*
X815800D01*
X817751Y384890D01*
X819150Y385825D01*
X820549Y384890D01*
X822500Y384502D01*
X828500D01*
X830451Y384890D01*
X831850Y385825D01*
X833249Y384890D01*
X835200Y384502D01*
X841200D01*
X843151Y384890D01*
X844805Y385995D01*
X845362Y386830D01*
X845962Y387626D01*
X846909Y387207D01*
X847900Y387010D01*
X848400D01*
Y401100D01*
X853400D01*
Y387010D01*
X853900D01*
X854891Y387207D01*
X855838Y387626D01*
X856438Y386830D01*
X856995Y385995D01*
X858649Y384890D01*
X860600Y384502D01*
X866600D01*
X868551Y384890D01*
X869950Y385825D01*
X871349Y384890D01*
X873300Y384502D01*
X879300D01*
X881251Y384890D01*
X882650Y385825D01*
X884049Y384890D01*
X886000Y384502D01*
X892000D01*
X893951Y384890D01*
X895350Y385825D01*
X896749Y384890D01*
X898700Y384502D01*
X904700D01*
X906651Y384890D01*
X908305Y385995D01*
X908862Y386830D01*
X909462Y387626D01*
X910409Y387207D01*
X911400Y387010D01*
X911900D01*
Y401100D01*
X916900D01*
Y387010D01*
X917400D01*
X918391Y387207D01*
X919338Y387626D01*
X919938Y386830D01*
X920495Y385995D01*
X922149Y384890D01*
X924100Y384502D01*
X930100D01*
X932051Y384890D01*
X933450Y385825D01*
X934849Y384890D01*
X936800Y384502D01*
X942800D01*
X944751Y384890D01*
X946150Y385825D01*
X947549Y384890D01*
X949500Y384502D01*
X955500D01*
X957451Y384890D01*
X959105Y385995D01*
X960210Y387649D01*
X960598Y389600D01*
Y411576D01*
X969836Y420814D01*
X970878Y422172D01*
X971533Y423753D01*
X971756Y425450D01*
Y438150D01*
X971533Y439847D01*
X970878Y441428D01*
X969836Y442786D01*
X945486Y467136D01*
X944128Y468178D01*
X942547Y468833D01*
X940850Y469056D01*
X814869D01*
X813172Y468833D01*
X811591Y468178D01*
X810233Y467136D01*
X802979Y459881D01*
X693529D01*
X691833Y459658D01*
X690251Y459003D01*
X688894Y457961D01*
X582514Y351581D01*
X576441D01*
X575815Y352851D01*
X577379Y354890D01*
X578790Y358295D01*
X579271Y361950D01*
X578790Y365605D01*
X577379Y369010D01*
X575135Y371935D01*
X573959Y372837D01*
X573876Y374104D01*
X574086Y374314D01*
X575128Y375672D01*
X575783Y377253D01*
X576006Y378950D01*
Y379585D01*
X576562D01*
X578513Y379973D01*
X580167Y381078D01*
X581272Y382732D01*
X581660Y384683D01*
Y402717D01*
X581272Y404668D01*
X580167Y406322D01*
X578513Y407427D01*
X576562Y407815D01*
X575433D01*
X575128Y408553D01*
X574382Y409525D01*
X574422Y409828D01*
X576505Y412544D01*
X577815Y415706D01*
X578262Y419100D01*
X577815Y422494D01*
X576505Y425656D01*
X574422Y428372D01*
X571706Y430456D01*
X568544Y431765D01*
X565150Y432212D01*
X561756Y431765D01*
X560062Y431064D01*
X559006Y431769D01*
Y434975D01*
X558783Y436672D01*
X558128Y438253D01*
X557086Y439611D01*
X544361Y452336D01*
X543003Y453378D01*
X541422Y454033D01*
X539725Y454256D01*
X522287D01*
X522255Y454305D01*
X520601Y455410D01*
X518650Y455798D01*
X507150D01*
X505199Y455410D01*
X503545Y454305D01*
X502440Y452651D01*
X502052Y450700D01*
Y444700D01*
X502440Y442749D01*
X503545Y441095D01*
X505199Y439990D01*
X507150Y439602D01*
X518650D01*
X520601Y439990D01*
X522255Y441095D01*
X522287Y441144D01*
X537009D01*
X545305Y432848D01*
X545256Y432265D01*
X543912Y431447D01*
X543144Y431765D01*
X539750Y432212D01*
X536356Y431765D01*
X533194Y430456D01*
X530478Y428372D01*
X529576Y427196D01*
X528309Y427113D01*
X525336Y430086D01*
X523978Y431128D01*
X522397Y431783D01*
X521852Y431854D01*
Y433070D01*
X521464Y435021D01*
X520359Y436675D01*
X518705Y437780D01*
X516754Y438168D01*
X503546D01*
X501595Y437780D01*
X501582Y437771D01*
X501569Y437780D01*
X499618Y438168D01*
X486410D01*
X485981Y438520D01*
Y449102D01*
X496150D01*
X498101Y449490D01*
X499755Y450595D01*
X500860Y452249D01*
X501248Y454200D01*
Y460200D01*
X500860Y462151D01*
X499755Y463805D01*
X498101Y464910D01*
X496150Y465298D01*
X484650D01*
X482699Y464910D01*
X481045Y463805D01*
X480848Y463510D01*
X479322Y462878D01*
X477964Y461836D01*
X474789Y458661D01*
X473747Y457303D01*
X473092Y455722D01*
X472869Y454025D01*
Y429936D01*
X471599Y429310D01*
X470106Y430456D01*
X466944Y431765D01*
X463550Y432212D01*
X460156Y431765D01*
X458462Y431064D01*
X457406Y431769D01*
Y434975D01*
X457183Y436672D01*
X456528Y438253D01*
X455486Y439611D01*
X442761Y452336D01*
X441403Y453378D01*
X439822Y454033D01*
X438125Y454256D01*
X420687D01*
X420655Y454305D01*
X419001Y455410D01*
X417050Y455798D01*
X405550D01*
X403599Y455410D01*
X401945Y454305D01*
X400840Y452651D01*
X400452Y450700D01*
Y444700D01*
X400840Y442749D01*
X401945Y441095D01*
X403599Y439990D01*
X405550Y439602D01*
X417050D01*
X419001Y439990D01*
X420655Y441095D01*
X420687Y441144D01*
X435409D01*
X443705Y432848D01*
X443656Y432265D01*
X442312Y431447D01*
X441544Y431765D01*
X438150Y432212D01*
X434756Y431765D01*
X431594Y430456D01*
X428878Y428372D01*
X427976Y427196D01*
X426709Y427113D01*
X423736Y430086D01*
X422378Y431128D01*
X420797Y431783D01*
X420252Y431854D01*
Y433070D01*
X419864Y435021D01*
X418759Y436675D01*
X417105Y437780D01*
X415154Y438168D01*
X401946D01*
X399995Y437780D01*
X399982Y437771D01*
X399969Y437780D01*
X398018Y438168D01*
X384810D01*
X384381Y438520D01*
Y449102D01*
X394550D01*
X396501Y449490D01*
X398155Y450595D01*
X399260Y452249D01*
X399648Y454200D01*
Y460200D01*
X399260Y462151D01*
X398155Y463805D01*
X396501Y464910D01*
X394550Y465298D01*
X383050D01*
X381099Y464910D01*
X379445Y463805D01*
X379248Y463510D01*
X377722Y462878D01*
X376364Y461836D01*
X373189Y458661D01*
X372147Y457303D01*
X371492Y455722D01*
X371269Y454025D01*
Y428625D01*
X371492Y426928D01*
X372147Y425347D01*
X373189Y423989D01*
X376364Y420814D01*
X377722Y419772D01*
X379303Y419117D01*
X379712Y419063D01*
Y417830D01*
X380100Y415879D01*
X381205Y414225D01*
X382859Y413120D01*
X384810Y412732D01*
X398018D01*
X399969Y413120D01*
X399982Y413129D01*
X399995Y413120D01*
X401946Y412732D01*
X415154D01*
X417105Y413120D01*
X418759Y414225D01*
X419122Y414768D01*
X420386Y414893D01*
X420814Y414464D01*
X422172Y413422D01*
X423753Y412767D01*
X425450Y412544D01*
X426795D01*
X428878Y409828D01*
X429935Y409018D01*
X429527Y407815D01*
X426720D01*
X424769Y407427D01*
X423115Y406322D01*
X422010Y404668D01*
X421622Y402717D01*
Y384683D01*
X422010Y382732D01*
X423115Y381078D01*
X424769Y379973D01*
X426720Y379585D01*
X427276D01*
Y373048D01*
X422734Y368506D01*
X399788D01*
X399579Y369010D01*
X397335Y371935D01*
X394410Y374179D01*
X391005Y375590D01*
X387350Y376071D01*
X383695Y375590D01*
X380290Y374179D01*
X378281Y372638D01*
X376746Y373061D01*
X376453Y373769D01*
X375411Y375127D01*
X347252Y403286D01*
X345894Y404328D01*
X344313Y404983D01*
X342616Y405206D01*
X308276D01*
X295531Y417951D01*
Y431400D01*
X295308Y433097D01*
X294653Y434678D01*
X293611Y436036D01*
X280711Y448936D01*
X279353Y449978D01*
X277772Y450633D01*
X276075Y450856D01*
X275923D01*
X275361Y451995D01*
X275470Y452137D01*
X276481Y454579D01*
X276497Y454700D01*
X256903D01*
X256918Y454579D01*
X257930Y452137D01*
X258039Y451995D01*
X257477Y450856D01*
X253800D01*
X252103Y450633D01*
X250522Y449978D01*
X249164Y448936D01*
X241077Y440848D01*
X238951Y440568D01*
X236761Y439661D01*
X234881Y438219D01*
X233438Y436339D01*
X232532Y434150D01*
X232222Y431800D01*
X232336Y430934D01*
X230411Y430136D01*
X228531Y428694D01*
X227089Y426814D01*
X226182Y424624D01*
X225872Y422275D01*
X226096Y420576D01*
X225184Y419306D01*
X207539D01*
X207286Y420576D01*
X207739Y420764D01*
X209619Y422206D01*
X211061Y424086D01*
X211968Y426275D01*
X212278Y428625D01*
X211968Y430975D01*
X211061Y433164D01*
X209619Y435044D01*
X207739Y436487D01*
X205550Y437393D01*
X203200Y437703D01*
X200851Y437393D01*
X200114Y437088D01*
X199274Y437537D01*
X198169Y439191D01*
X197673Y439522D01*
X197412Y441224D01*
X197609Y441469D01*
X221560D01*
X223257Y441692D01*
X224838Y442347D01*
X226196Y443389D01*
X239586Y456779D01*
X240628Y458137D01*
X241283Y459718D01*
X241506Y461415D01*
Y464009D01*
X259891Y482394D01*
X379848D01*
Y481330D01*
X380236Y479379D01*
X381341Y477725D01*
X382995Y476620D01*
X384946Y476232D01*
X398154D01*
X400105Y476620D01*
X400118Y476629D01*
X400131Y476620D01*
X402082Y476232D01*
X415290D01*
X417241Y476620D01*
X418895Y477725D01*
X420000Y479379D01*
X420388Y481330D01*
Y496570D01*
X420000Y498521D01*
X418895Y500175D01*
X417241Y501280D01*
X416945Y501339D01*
X416576Y502554D01*
X421816Y507794D01*
X451164D01*
X451691Y506524D01*
X450840Y505251D01*
X450452Y503300D01*
Y487300D01*
X450840Y485349D01*
X451945Y483695D01*
X453599Y482590D01*
X455550Y482202D01*
X471550D01*
X473501Y482590D01*
X475155Y483695D01*
X476260Y485349D01*
X476648Y487300D01*
Y503300D01*
X476581Y503637D01*
X477387Y504619D01*
X479884D01*
X483066Y501438D01*
X482941Y500175D01*
X481836Y498521D01*
X481448Y496570D01*
Y481330D01*
X481836Y479379D01*
X482941Y477725D01*
X484595Y476620D01*
X486546Y476232D01*
X499754D01*
X501705Y476620D01*
X501718Y476629D01*
X501731Y476620D01*
X503682Y476232D01*
X516890D01*
X518841Y476620D01*
X520495Y477725D01*
X521600Y479379D01*
X521988Y481330D01*
Y496570D01*
X521600Y498521D01*
X520495Y500175D01*
X518841Y501280D01*
X518545Y501339D01*
X518176Y502554D01*
X523416Y507794D01*
X552764D01*
X553291Y506524D01*
X552440Y505251D01*
X552052Y503300D01*
Y487300D01*
X552440Y485349D01*
X553545Y483695D01*
X555199Y482590D01*
X557150Y482202D01*
X573150D01*
X575101Y482590D01*
X576755Y483695D01*
X577860Y485349D01*
X578248Y487300D01*
Y503300D01*
X577860Y505251D01*
X576755Y506905D01*
X575101Y508010D01*
X573150Y508398D01*
X571654D01*
X571483Y509697D01*
X570828Y511278D01*
X569786Y512636D01*
X563436Y518986D01*
X562078Y520028D01*
X560497Y520683D01*
X558800Y520906D01*
X520700D01*
X519003Y520683D01*
X517422Y520028D01*
X516064Y518986D01*
X505650Y508572D01*
X504608Y507214D01*
X503953Y505633D01*
X503730Y503936D01*
Y501668D01*
X503682D01*
X501731Y501280D01*
X501718Y501271D01*
X501705Y501280D01*
X499754Y501668D01*
X499569D01*
X499483Y502322D01*
X498828Y503903D01*
X497786Y505261D01*
X487236Y515811D01*
X485878Y516853D01*
X484297Y517508D01*
X482600Y517731D01*
X471576D01*
X464321Y524986D01*
X462963Y526028D01*
X461382Y526683D01*
X459685Y526906D01*
X416615D01*
X414918Y526683D01*
X413337Y526028D01*
X411979Y524986D01*
X398374Y511381D01*
X377825D01*
X376128Y511158D01*
X374547Y510503D01*
X373189Y509461D01*
X365234Y501506D01*
X254690D01*
X252993Y501283D01*
X251412Y500628D01*
X250054Y499586D01*
X224314Y473846D01*
X223272Y472488D01*
X222617Y470907D01*
X222394Y469210D01*
Y466616D01*
X216359Y460581D01*
X214036D01*
X213410Y461851D01*
X214555Y463344D01*
X215865Y466506D01*
X216312Y469900D01*
X215865Y473294D01*
X214555Y476456D01*
X212472Y479172D01*
X209756Y481255D01*
X206594Y482565D01*
X203200Y483012D01*
X199806Y482565D01*
X197754Y484618D01*
X197809Y484768D01*
X199398Y485466D01*
X200448Y485031D01*
X200700Y484998D01*
Y495300D01*
Y505602D01*
X200448Y505569D01*
X198326Y504690D01*
X197056Y505338D01*
Y511175D01*
X196833Y512872D01*
X196178Y514453D01*
X195136Y515811D01*
X192992Y517955D01*
Y520682D01*
X193040D01*
X194991Y521070D01*
X196645Y522175D01*
X197750Y523829D01*
X198138Y525780D01*
Y541020D01*
X197750Y542971D01*
X196645Y544625D01*
X194991Y545730D01*
X193040Y546118D01*
X192992D01*
Y556514D01*
X192769Y558211D01*
X192114Y559792D01*
X191072Y561150D01*
X176086Y576136D01*
X174728Y577178D01*
X173147Y577833D01*
X171450Y578056D01*
X162955D01*
Y579501D01*
X162567Y581452D01*
X161462Y583106D01*
X159808Y584211D01*
X157857Y584599D01*
D02*
G37*
G36*
X730000Y615097D02*
X724114Y614711D01*
X718328Y613560D01*
X712742Y611664D01*
X707452Y609055D01*
X702547Y605778D01*
X698112Y601888D01*
X694222Y597453D01*
X690945Y592548D01*
X688336Y587258D01*
X686440Y581672D01*
X685289Y575886D01*
X684903Y570000D01*
X685289Y564114D01*
X686440Y558328D01*
X688336Y552742D01*
X690945Y547452D01*
X694222Y542547D01*
X698112Y538112D01*
X702547Y534222D01*
X707452Y530945D01*
X712742Y528336D01*
X718328Y526440D01*
X724114Y525289D01*
X730000Y524903D01*
X735886Y525289D01*
X741672Y526440D01*
X747258Y528336D01*
X752548Y530945D01*
X757453Y534222D01*
X761888Y538112D01*
X765777Y542547D01*
X769055Y547452D01*
X771664Y552742D01*
X773560Y558328D01*
X774711Y564114D01*
X775097Y570000D01*
X774711Y575886D01*
X773560Y581672D01*
X771664Y587258D01*
X769055Y592548D01*
X765777Y597453D01*
X761888Y601888D01*
X757453Y605778D01*
X752548Y609055D01*
X747258Y611664D01*
X741672Y613560D01*
X735886Y614711D01*
X730000Y615097D01*
D02*
G37*
G36*
X115102Y59222D02*
X97711D01*
X97852Y57793D01*
X98998Y54016D01*
X100859Y50535D01*
X103363Y47483D01*
X106414Y44979D01*
X109896Y43118D01*
X113673Y41972D01*
X115102Y41831D01*
Y59222D01*
D02*
G37*
G36*
X223697Y569000D02*
X212050D01*
Y560909D01*
X221107D01*
X222098Y561106D01*
X222938Y561668D01*
X223500Y562508D01*
X223697Y563499D01*
Y569000D01*
D02*
G37*
G36*
X408800Y464200D02*
X402960D01*
Y463700D01*
X403157Y462709D01*
X403719Y461869D01*
X404559Y461307D01*
X405550Y461110D01*
X408800D01*
Y464200D01*
D02*
G37*
G36*
X207050Y569000D02*
X195403D01*
Y563499D01*
X195600Y562508D01*
X196162Y561668D01*
X197002Y561106D01*
X197993Y560909D01*
X207050D01*
Y569000D01*
D02*
G37*
G36*
X205700Y505602D02*
Y497800D01*
X213502D01*
X213469Y498051D01*
X212407Y500616D01*
X210717Y502817D01*
X208515Y504507D01*
X205951Y505569D01*
X205700Y505602D01*
D02*
G37*
G36*
X537250D02*
X536998Y505569D01*
X534435Y504507D01*
X532233Y502817D01*
X530543Y500616D01*
X529481Y498051D01*
X529448Y497800D01*
X537250D01*
Y505602D01*
D02*
G37*
G36*
X435650D02*
X435398Y505569D01*
X432835Y504507D01*
X430633Y502817D01*
X428943Y500616D01*
X427881Y498051D01*
X427848Y497800D01*
X435650D01*
Y505602D01*
D02*
G37*
G36*
X542250D02*
Y497800D01*
X550052D01*
X550019Y498051D01*
X548957Y500616D01*
X547267Y502817D01*
X545065Y504507D01*
X542501Y505569D01*
X542250Y505602D01*
D02*
G37*
G36*
X440650D02*
Y497800D01*
X448452D01*
X448419Y498051D01*
X447357Y500616D01*
X445667Y502817D01*
X443465Y504507D01*
X440901Y505569D01*
X440650Y505602D01*
D02*
G37*
G36*
X419640Y464200D02*
X413800D01*
Y461110D01*
X417050D01*
X418041Y461307D01*
X418881Y461869D01*
X419443Y462709D01*
X419640Y463700D01*
Y464200D01*
D02*
G37*
%LPD*%
G36*
X156195Y141895D02*
X157849Y140790D01*
X159800Y140402D01*
X161494D01*
Y130400D01*
X161717Y128703D01*
X162372Y127122D01*
X163414Y125764D01*
X166221Y122958D01*
X165628Y121755D01*
X165100Y121824D01*
X161706Y121377D01*
X158544Y120068D01*
X155828Y117984D01*
X153744Y115268D01*
X152435Y112106D01*
X151988Y108712D01*
X151500Y108156D01*
X148766D01*
X148606Y108316D01*
Y140402D01*
X150300D01*
X152251Y140790D01*
X153905Y141895D01*
X154381Y142608D01*
X155719D01*
X156195Y141895D01*
D02*
G37*
G36*
X780844Y132670D02*
Y66216D01*
X763564Y48936D01*
X762522Y47578D01*
X761867Y45997D01*
X761666Y44464D01*
X761644Y44455D01*
X758928Y42372D01*
X756844Y39656D01*
X756187Y38069D01*
X754813D01*
X754155Y39656D01*
X752072Y42372D01*
X749356Y44455D01*
X746194Y45765D01*
X742800Y46212D01*
X739406Y45765D01*
X720378Y64793D01*
X720977Y65913D01*
X724114Y65289D01*
X730000Y64903D01*
X735886Y65289D01*
X741672Y66440D01*
X747258Y68336D01*
X752548Y70945D01*
X757453Y74222D01*
X761888Y78112D01*
X765777Y82547D01*
X769055Y87452D01*
X771664Y92742D01*
X773560Y98328D01*
X774711Y104114D01*
X775097Y110000D01*
X774711Y115886D01*
X773560Y121672D01*
X771664Y127258D01*
X769055Y132548D01*
X765777Y137453D01*
X761888Y141888D01*
X757453Y145778D01*
X752548Y149055D01*
X747258Y151664D01*
X741672Y153560D01*
X735886Y154711D01*
X730000Y155097D01*
X724114Y154711D01*
X718328Y153560D01*
X712742Y151664D01*
X707452Y149055D01*
X702547Y145778D01*
X698112Y141888D01*
X694222Y137453D01*
X690945Y132548D01*
X688336Y127258D01*
X686440Y121672D01*
X685289Y115886D01*
X684903Y110000D01*
X685289Y104114D01*
X685913Y100977D01*
X684793Y100379D01*
X675425Y109746D01*
X674068Y110788D01*
X672486Y111443D01*
X670789Y111666D01*
X659173D01*
X658687Y112840D01*
X704391Y158544D01*
X754970D01*
X780844Y132670D01*
D02*
G37*
G36*
X644319Y55474D02*
Y46765D01*
X643364Y45927D01*
X641200Y46212D01*
X637806Y45765D01*
X634644Y44455D01*
X631928Y42372D01*
X629845Y39656D01*
X629187Y38069D01*
X627813D01*
X627155Y39656D01*
X625072Y42372D01*
X622356Y44455D01*
X619194Y45765D01*
X615800Y46212D01*
X613936Y45967D01*
X612981Y46804D01*
Y62460D01*
X612758Y64157D01*
X612103Y65738D01*
X611061Y67096D01*
X604776Y73381D01*
X605262Y74554D01*
X625239D01*
X644319Y55474D01*
D02*
G37*
G36*
X695119Y54539D02*
Y46765D01*
X694164Y45927D01*
X692000Y46212D01*
X688606Y45765D01*
X685444Y44455D01*
X682728Y42372D01*
X680645Y39656D01*
X679987Y38069D01*
X678613D01*
X677955Y39656D01*
X675872Y42372D01*
X673156Y44455D01*
X669994Y45765D01*
X666600Y46212D01*
X664386Y45921D01*
X663431Y46758D01*
Y60675D01*
X663208Y62372D01*
X662553Y63953D01*
X661511Y65311D01*
X641441Y85381D01*
X641927Y86554D01*
X663103D01*
X695119Y54539D01*
D02*
G37*
G36*
X557951Y405151D02*
X557628Y404668D01*
X557240Y402717D01*
Y384683D01*
X557628Y382732D01*
X558733Y381078D01*
X559799Y380366D01*
X559931Y380166D01*
X560142Y378917D01*
X560104Y378751D01*
X559472Y377928D01*
X558817Y376347D01*
X558594Y374650D01*
Y374388D01*
X558090Y374179D01*
X555165Y371935D01*
X552921Y369010D01*
X551510Y365605D01*
X551029Y361950D01*
X551510Y358295D01*
X552921Y354890D01*
X554485Y352851D01*
X553859Y351581D01*
X500241D01*
X499615Y352851D01*
X501179Y354890D01*
X501388Y355394D01*
X527050D01*
X528747Y355617D01*
X530328Y356272D01*
X531686Y357314D01*
X540068Y365696D01*
X541110Y367054D01*
X541765Y368635D01*
X541988Y370332D01*
Y379585D01*
X542544D01*
X544495Y379973D01*
X546149Y381078D01*
X547254Y382732D01*
X547642Y384683D01*
Y396638D01*
X556965Y405961D01*
X557951Y405151D01*
D02*
G37*
G36*
X477964Y420814D02*
X479322Y419772D01*
X480903Y419117D01*
X481312Y419063D01*
Y417830D01*
X481700Y415879D01*
X482805Y414225D01*
X484459Y413120D01*
X486410Y412732D01*
X499618D01*
X501569Y413120D01*
X501582Y413129D01*
X501595Y413120D01*
X503546Y412732D01*
X516754D01*
X518705Y413120D01*
X520359Y414225D01*
X520722Y414768D01*
X521986Y414893D01*
X522414Y414464D01*
X523772Y413422D01*
X525353Y412767D01*
X527050Y412544D01*
X528395D01*
X530478Y409828D01*
X531535Y409018D01*
X531127Y407815D01*
X528320D01*
X526369Y407427D01*
X524715Y406322D01*
X523610Y404668D01*
X523222Y402717D01*
Y384683D01*
X523610Y382732D01*
X524715Y381078D01*
X526369Y379973D01*
X528320Y379585D01*
X528876D01*
Y373048D01*
X524334Y368506D01*
X501388D01*
X501179Y369010D01*
X498935Y371935D01*
X496010Y374179D01*
X492605Y375590D01*
X488950Y376071D01*
X485295Y375590D01*
X481890Y374179D01*
X478965Y371935D01*
X477002Y369376D01*
X476659Y369274D01*
X475841D01*
X475498Y369376D01*
X473535Y371935D01*
X472359Y372837D01*
X472276Y374104D01*
X472486Y374314D01*
X473528Y375672D01*
X474183Y377253D01*
X474406Y378950D01*
Y379585D01*
X474962D01*
X476913Y379973D01*
X478567Y381078D01*
X479672Y382732D01*
X480060Y384683D01*
Y402717D01*
X479672Y404668D01*
X478567Y406322D01*
X476913Y407427D01*
X474962Y407815D01*
X473833D01*
X473528Y408553D01*
X472782Y409525D01*
X472822Y409828D01*
X474905Y412544D01*
X476215Y415706D01*
X476662Y419100D01*
X476477Y420505D01*
X477680Y421098D01*
X477964Y420814D01*
D02*
G37*
G36*
X456351Y405151D02*
X456028Y404668D01*
X455640Y402717D01*
Y384683D01*
X456028Y382732D01*
X457133Y381078D01*
X458199Y380366D01*
X458331Y380166D01*
X458542Y378917D01*
X458504Y378751D01*
X457872Y377928D01*
X457217Y376347D01*
X456994Y374650D01*
Y374388D01*
X456490Y374179D01*
X453565Y371935D01*
X451321Y369010D01*
X449910Y365605D01*
X449429Y361950D01*
X449910Y358295D01*
X451321Y354890D01*
X452885Y352851D01*
X452259Y351581D01*
X437396D01*
X437393Y351600D01*
X436487Y353789D01*
X435044Y355669D01*
X433164Y357112D01*
X432114Y357546D01*
X431816Y359044D01*
X438468Y365696D01*
X439510Y367054D01*
X440165Y368635D01*
X440388Y370332D01*
Y379585D01*
X440944D01*
X442895Y379973D01*
X444549Y381078D01*
X445654Y382732D01*
X446042Y384683D01*
Y396638D01*
X455365Y405961D01*
X456351Y405151D01*
D02*
G37*
G36*
X1101060Y337468D02*
X1100730Y336198D01*
X1099850D01*
X1098100Y335850D01*
X1096350Y336198D01*
X1093350D01*
X1091600Y335850D01*
X1089850Y336198D01*
X1086850D01*
X1085100Y335850D01*
X1083350Y336198D01*
X1080350D01*
X1078600Y335850D01*
X1076850Y336198D01*
X1073850D01*
X1071899Y335810D01*
X1070245Y334705D01*
X1069140Y333051D01*
X1068752Y331100D01*
Y329338D01*
X1067482Y328526D01*
X1066622Y328883D01*
X1064925Y329106D01*
X1062119D01*
Y332583D01*
X1061731Y334534D01*
X1060893Y335788D01*
X1060720Y336662D01*
X1060893Y337537D01*
X1061731Y338790D01*
X1062119Y340741D01*
Y344218D01*
X1094310D01*
X1101060Y337468D01*
D02*
G37*
G36*
X421121Y354255D02*
X420764Y353789D01*
X419857Y351600D01*
X419547Y349250D01*
X419857Y346900D01*
X419966Y346637D01*
X419260Y345581D01*
X380891D01*
X377331Y349141D01*
Y350390D01*
X378601Y351017D01*
X380290Y349721D01*
X383695Y348310D01*
X387350Y347829D01*
X391005Y348310D01*
X394410Y349721D01*
X397335Y351965D01*
X399579Y354890D01*
X399788Y355394D01*
X420560D01*
X421121Y354255D01*
D02*
G37*
G36*
X949858Y444220D02*
X949481Y443456D01*
X949202Y443081D01*
X945856Y442640D01*
X942694Y441330D01*
X939978Y439247D01*
X937895Y436531D01*
X937237Y434944D01*
X935863D01*
X935205Y436531D01*
X933122Y439247D01*
X930406Y441330D01*
Y441400D01*
X930183Y443097D01*
X929528Y444678D01*
X928486Y446036D01*
X919751Y454771D01*
X920237Y455944D01*
X938134D01*
X949858Y444220D01*
D02*
G37*
G36*
X160745Y521070D02*
X162696Y520682D01*
X175904D01*
X177855Y521070D01*
X177868Y521079D01*
X177881Y521070D01*
X179832Y520682D01*
X179880D01*
Y515239D01*
X180103Y513542D01*
X180758Y511961D01*
X181800Y510603D01*
X183355Y509048D01*
X183306Y508465D01*
X181962Y507647D01*
X181194Y507965D01*
X177800Y508412D01*
X174406Y507965D01*
X171244Y506656D01*
X168528Y504572D01*
X166444Y501856D01*
X165787Y500269D01*
X164413D01*
X163755Y501856D01*
X161672Y504572D01*
X158956Y506656D01*
Y520738D01*
X160226Y521417D01*
X160745Y521070D01*
D02*
G37*
G36*
X139302Y461900D02*
X139690Y459949D01*
X140795Y458295D01*
X142449Y457190D01*
X144400Y456802D01*
X148461D01*
X148947Y455629D01*
X138239Y444921D01*
X137197Y443563D01*
X136542Y441982D01*
X136319Y440285D01*
Y422275D01*
X136542Y420578D01*
X137197Y418997D01*
X138239Y417639D01*
X144823Y411055D01*
X144699Y409791D01*
X144195Y409455D01*
X143090Y407801D01*
X142702Y405850D01*
Y404156D01*
X123736D01*
X120506Y407386D01*
Y458349D01*
X125501Y463344D01*
X139302D01*
Y461900D01*
D02*
G37*
G36*
X775544Y424859D02*
Y375204D01*
X774274Y374525D01*
X774167Y374597D01*
X773176Y374794D01*
X767675D01*
Y365600D01*
X765175D01*
Y363100D01*
X754584D01*
Y358996D01*
X754781Y358005D01*
X754844Y357912D01*
X755154Y356963D01*
X754520Y356284D01*
X753569Y355649D01*
X752464Y353995D01*
X752076Y352044D01*
Y351996D01*
X748665D01*
X746968Y351773D01*
X745387Y351118D01*
X744029Y350076D01*
X742645Y348691D01*
X741260Y350076D01*
X739902Y351118D01*
X738321Y351773D01*
X736624Y351996D01*
X721124D01*
Y352044D01*
X720736Y353995D01*
X719717Y355520D01*
X720736Y357045D01*
X721124Y358996D01*
Y359044D01*
X724375D01*
X726072Y359267D01*
X727653Y359922D01*
X729011Y360964D01*
X731486Y363439D01*
X732528Y364797D01*
X733183Y366378D01*
X733215Y366625D01*
X734495Y366995D01*
X736149Y365890D01*
X738100Y365502D01*
X741600D01*
X743100Y365800D01*
X744600Y365502D01*
X748100D01*
X750051Y365890D01*
X751705Y366995D01*
X752810Y368649D01*
X753198Y370600D01*
Y390600D01*
X752810Y392551D01*
X751705Y394205D01*
X750344Y395114D01*
X750174Y396159D01*
X750234Y396568D01*
X751000Y397080D01*
X752105Y398734D01*
X752493Y400685D01*
Y413893D01*
X752105Y415844D01*
X752096Y415857D01*
X752105Y415870D01*
X752493Y417821D01*
Y431029D01*
X752105Y432980D01*
X751758Y433499D01*
X752437Y434769D01*
X765634D01*
X775544Y424859D01*
D02*
G37*
G36*
X1043640Y379719D02*
X1045591Y379331D01*
X1065657D01*
X1067608Y379719D01*
X1068953Y379090D01*
X1069140Y378149D01*
X1070245Y376495D01*
X1070798Y376126D01*
X1070412Y374856D01*
X1033477D01*
X1032851Y376126D01*
X1033078Y376422D01*
X1033733Y378003D01*
X1033907Y379331D01*
X1037433D01*
X1039384Y379719D01*
X1041038Y380824D01*
X1041986D01*
X1043640Y379719D01*
D02*
G37*
G36*
X110504Y351774D02*
X109614Y350614D01*
X108707Y348424D01*
X108397Y346075D01*
X108707Y343726D01*
X109614Y341536D01*
X111003Y339725D01*
X109614Y337914D01*
X108707Y335724D01*
X108397Y333375D01*
X108707Y331026D01*
X109614Y328836D01*
X111056Y326956D01*
X112936Y325513D01*
X115126Y324607D01*
X117475Y324297D01*
X119824Y324607D01*
X121238Y325192D01*
X122648Y324519D01*
X122676Y324476D01*
X122840Y323649D01*
X123945Y321995D01*
X125599Y320890D01*
X127550Y320502D01*
X129244D01*
Y306791D01*
X125539Y303086D01*
X124497Y301728D01*
X123842Y300147D01*
X123619Y298450D01*
Y269525D01*
X123842Y267828D01*
X124497Y266247D01*
X125539Y264889D01*
X132224Y258204D01*
X131738Y257031D01*
X130066D01*
X128461Y258636D01*
X127103Y259678D01*
X125522Y260333D01*
X123825Y260556D01*
X114698D01*
Y262000D01*
X114310Y263951D01*
X113205Y265605D01*
X111551Y266710D01*
X109600Y267098D01*
X109009D01*
X108577Y268368D01*
X110872Y270128D01*
X112955Y272844D01*
X114265Y276006D01*
X114712Y279400D01*
X114265Y282794D01*
X112955Y285956D01*
X110872Y288672D01*
X108156Y290756D01*
X106569Y291413D01*
Y292787D01*
X108156Y293444D01*
X110872Y295528D01*
X112955Y298244D01*
X114265Y301406D01*
X114712Y304800D01*
X114265Y308194D01*
X112955Y311356D01*
X110872Y314072D01*
X108156Y316155D01*
X104994Y317465D01*
X101600Y317912D01*
X98206Y317465D01*
X96512Y316764D01*
X95456Y317469D01*
Y340184D01*
X108316Y353044D01*
X109877D01*
X110504Y351774D01*
D02*
G37*
G36*
X968169Y285563D02*
Y263066D01*
X959309Y254206D01*
X880627D01*
Y255270D01*
X880239Y257221D01*
X879134Y258875D01*
X877480Y259980D01*
X875529Y260368D01*
X865024D01*
X864538Y261541D01*
X865061Y262064D01*
X866103Y263422D01*
X866758Y265003D01*
X866760Y265019D01*
X867860Y265654D01*
X869656Y264910D01*
X873050Y264463D01*
X876444Y264910D01*
X879606Y266220D01*
X882322Y268303D01*
X884405Y271019D01*
X885063Y272606D01*
X886437D01*
X887094Y271019D01*
X889178Y268303D01*
X891894Y266220D01*
X895056Y264910D01*
X898450Y264463D01*
X901844Y264910D01*
X905006Y266220D01*
X907722Y268303D01*
X909805Y271019D01*
X910463Y272606D01*
X911837D01*
X912495Y271019D01*
X914578Y268303D01*
X917294Y266220D01*
X920456Y264910D01*
X923850Y264463D01*
X927244Y264910D01*
X930406Y266220D01*
X933122Y268303D01*
X935205Y271019D01*
X935863Y272606D01*
X937237D01*
X937895Y271019D01*
X939978Y268303D01*
X942694Y266220D01*
X945856Y264910D01*
X949250Y264463D01*
X952644Y264910D01*
X955806Y266220D01*
X958522Y268303D01*
X960605Y271019D01*
X961915Y274181D01*
X962362Y277575D01*
X961915Y280969D01*
X966996Y286049D01*
X968169Y285563D01*
D02*
G37*
G36*
X308056Y311520D02*
X310007Y311132D01*
X322219D01*
Y268701D01*
X309235Y255717D01*
X301131Y263821D01*
Y298110D01*
X300908Y299807D01*
X300253Y301388D01*
X299211Y302746D01*
X292466Y309491D01*
X292511Y310836D01*
X292871Y311132D01*
X306079D01*
X308030Y311520D01*
X308043Y311529D01*
X308056Y311520D01*
D02*
G37*
G36*
X228551Y268498D02*
X228589Y268305D01*
X229608Y266780D01*
X228589Y265255D01*
X228201Y263304D01*
Y250096D01*
X228589Y248145D01*
X229694Y246491D01*
X231348Y245386D01*
X233299Y244998D01*
X234050D01*
X234456Y243728D01*
X230314Y239586D01*
X229272Y238228D01*
X228617Y236647D01*
X228394Y234950D01*
Y209406D01*
X225462D01*
X225077Y210676D01*
X225405Y210895D01*
X226510Y212549D01*
X226898Y214500D01*
Y235500D01*
X226606Y236967D01*
Y240325D01*
X226383Y242022D01*
X225999Y242948D01*
X225728Y243603D01*
X224686Y244961D01*
X214957Y254690D01*
X214760Y256288D01*
X226886Y268414D01*
X227193Y268814D01*
X228551Y268498D01*
D02*
G37*
G36*
X733042Y264554D02*
Y263245D01*
X711807Y242010D01*
X630329D01*
X628085Y244935D01*
X625527Y246898D01*
X625424Y247241D01*
Y248059D01*
X625527Y248402D01*
X628085Y250365D01*
X630329Y253290D01*
X717550D01*
X719377Y253530D01*
X721080Y254235D01*
X722542Y255358D01*
X723664Y256820D01*
X723676Y256848D01*
X731868Y265040D01*
X733042Y264554D01*
D02*
G37*
G36*
X726542Y280279D02*
Y278970D01*
X714982Y267410D01*
X630329D01*
X628085Y270335D01*
X627040Y271137D01*
X627448Y272340D01*
X714375D01*
X716202Y272580D01*
X717905Y273286D01*
X719367Y274408D01*
X720490Y275870D01*
X720501Y275898D01*
X725368Y280765D01*
X726542Y280279D01*
D02*
G37*
G36*
X175244Y353319D02*
X175467Y351622D01*
X175921Y350527D01*
X176009Y349883D01*
X175348Y348963D01*
X174502Y348613D01*
X173136Y347564D01*
X172087Y346198D01*
X171428Y344607D01*
X171371Y344170D01*
X177800D01*
Y341630D01*
X171371D01*
X171428Y341193D01*
X172087Y339602D01*
X173136Y338236D01*
X174502Y337187D01*
X175599Y336733D01*
X176118Y335419D01*
X176089Y335248D01*
X175467Y333747D01*
X175244Y332050D01*
Y324440D01*
X172083D01*
X171405Y325455D01*
X169751Y326560D01*
X167800Y326948D01*
X166429D01*
X165943Y328121D01*
X166561Y328739D01*
X167603Y330097D01*
X168258Y331678D01*
X168481Y333375D01*
Y355710D01*
X169786Y357411D01*
X170693Y359600D01*
X171003Y361950D01*
X170693Y364300D01*
X169786Y366489D01*
X168344Y368369D01*
X166464Y369812D01*
X164275Y370718D01*
X161925Y371028D01*
X161059Y370914D01*
X160349Y372627D01*
X170436Y382714D01*
X171478Y384072D01*
X172133Y385653D01*
X172278Y386760D01*
X175244D01*
Y353319D01*
D02*
G37*
G36*
X215694Y275766D02*
X202959Y263031D01*
X145941D01*
X136731Y272241D01*
Y274663D01*
X137980Y275356D01*
X138971Y275159D01*
X143075D01*
Y285750D01*
X148075D01*
Y275159D01*
X152179D01*
X153170Y275356D01*
X153263Y275419D01*
X154212Y275730D01*
X154891Y275095D01*
X155526Y274144D01*
X157180Y273039D01*
X159131Y272651D01*
X172339D01*
X174290Y273039D01*
X174625Y273263D01*
X174960Y273039D01*
X176911Y272651D01*
X190119D01*
X192070Y273039D01*
X193724Y274144D01*
X194359Y275095D01*
X195038Y275730D01*
X195987Y275419D01*
X196080Y275356D01*
X197071Y275159D01*
X201175D01*
Y285750D01*
X203675D01*
Y288250D01*
X212869D01*
Y293751D01*
X213171Y294119D01*
X215694D01*
Y275766D01*
D02*
G37*
G36*
X777464Y366829D02*
X796154Y348139D01*
X797512Y347097D01*
X799093Y346442D01*
X800790Y346219D01*
X803384D01*
X806244Y343359D01*
Y325237D01*
X806195Y325205D01*
X805090Y323551D01*
X804702Y321600D01*
Y298600D01*
X805090Y296649D01*
X806195Y294995D01*
X807849Y293890D01*
X809800Y293502D01*
X815800D01*
X817751Y293890D01*
X819150Y294825D01*
X820549Y293890D01*
X822500Y293502D01*
X828500D01*
X830451Y293890D01*
X831850Y294825D01*
X833249Y293890D01*
X835200Y293502D01*
X841200D01*
X841466Y293555D01*
X842183Y292403D01*
X841972Y292128D01*
X841317Y290547D01*
X841105Y288935D01*
X841094Y288930D01*
X838378Y286847D01*
X836294Y284131D01*
X835637Y282544D01*
X834263D01*
X833605Y284131D01*
X831522Y286847D01*
X828806Y288930D01*
X825644Y290240D01*
X822250Y290687D01*
X818856Y290240D01*
X815694Y288930D01*
X812978Y286847D01*
X810894Y284131D01*
X809585Y280969D01*
X809138Y277575D01*
X809585Y274181D01*
X810894Y271019D01*
X812978Y268303D01*
X815694Y266220D01*
X818856Y264910D01*
X822250Y264463D01*
X825644Y264910D01*
X828806Y266220D01*
X831522Y268303D01*
X833605Y271019D01*
X834263Y272606D01*
X835637D01*
X836294Y271019D01*
X838378Y268303D01*
X841094Y266220D01*
X844256Y264910D01*
X847182Y264524D01*
X847720Y263267D01*
X847153Y262700D01*
X846111Y261342D01*
X845708Y260368D01*
X845185D01*
X843234Y259980D01*
X841580Y258875D01*
X840475Y257221D01*
X840087Y255270D01*
Y240030D01*
X840230Y239313D01*
X839424Y238331D01*
X777416D01*
X752906Y262841D01*
Y319133D01*
X753198Y320600D01*
Y333952D01*
X754468Y334631D01*
X755223Y334126D01*
X757174Y333738D01*
X773176D01*
X775127Y334126D01*
X776781Y335231D01*
X777886Y336885D01*
X778274Y338836D01*
Y352044D01*
X777886Y353995D01*
X776781Y355649D01*
X775830Y356284D01*
X775195Y356963D01*
X775506Y357912D01*
X775569Y358005D01*
X775766Y358996D01*
Y366956D01*
X777036Y367387D01*
X777464Y366829D01*
D02*
G37*
%LPC*%
G36*
X762675Y374794D02*
X757174D01*
X756183Y374597D01*
X755343Y374035D01*
X754781Y373195D01*
X754584Y372204D01*
Y368100D01*
X762675D01*
Y374794D01*
D02*
G37*
G36*
X212869Y283250D02*
X206175D01*
Y275159D01*
X210279D01*
X211270Y275356D01*
X212110Y275918D01*
X212672Y276758D01*
X212869Y277749D01*
Y283250D01*
D02*
G37*
%LPD*%
D10*
X1295400Y231950D02*
D03*
Y301450D02*
D03*
D11*
X467850Y393700D02*
D03*
X433832D02*
D03*
X535432D02*
D03*
X569450D02*
D03*
D12*
X1377950Y334800D02*
D03*
Y274800D02*
D03*
D13*
X1028700Y322550D02*
D03*
Y350774D02*
D03*
X1050925Y322550D02*
D03*
Y350774D02*
D03*
X1165225Y262001D02*
D03*
Y290225D02*
D03*
X1114425Y262225D02*
D03*
Y290449D02*
D03*
X1101725Y452374D02*
D03*
Y424150D02*
D03*
X1123950Y452150D02*
D03*
Y423926D02*
D03*
X1079500Y452374D02*
D03*
Y424150D02*
D03*
X974725Y372775D02*
D03*
Y344551D02*
D03*
D14*
X1055624Y390525D02*
D03*
X1027400D02*
D03*
D15*
X209550Y571500D02*
D03*
X146300D02*
D03*
D16*
X1257300Y444500D02*
D03*
D17*
X1291300Y350000D02*
D03*
X1274300D02*
D03*
X1257300D02*
D03*
X1240300D02*
D03*
X1223300D02*
D03*
D18*
X1377950Y467949D02*
D03*
Y382951D02*
D03*
D19*
X1411986Y234950D02*
D03*
X1394850D02*
D03*
X851789Y247650D02*
D03*
X868925D02*
D03*
X510286Y488950D02*
D03*
X493150D02*
D03*
X493014Y425450D02*
D03*
X510150D02*
D03*
X408686Y488950D02*
D03*
X391550D02*
D03*
X391414Y425450D02*
D03*
X408550D02*
D03*
X316611Y323850D02*
D03*
X299475D02*
D03*
X316611Y342900D02*
D03*
X299475D02*
D03*
X316611Y361950D02*
D03*
X299475D02*
D03*
X186436Y533400D02*
D03*
X169300D02*
D03*
D20*
X1370050Y234950D02*
D03*
X1335024D02*
D03*
D21*
X1231900Y290700D02*
D03*
Y242700D02*
D03*
D22*
X1133475Y267589D02*
D03*
Y284725D02*
D03*
X739775Y407289D02*
D03*
Y424425D02*
D03*
D23*
X1159850Y390100D02*
D03*
X1153350D02*
D03*
X1146850D02*
D03*
X1140350D02*
D03*
X1133850D02*
D03*
X1127350D02*
D03*
X1120850D02*
D03*
X1114350D02*
D03*
X1107850D02*
D03*
X1101350D02*
D03*
X1094850D02*
D03*
X1088350D02*
D03*
X1081850D02*
D03*
X1075350D02*
D03*
X1159850Y321100D02*
D03*
X1153350D02*
D03*
X1146850D02*
D03*
X1140350D02*
D03*
X1133850D02*
D03*
X1127350D02*
D03*
X1120850D02*
D03*
X1114350D02*
D03*
X1107850D02*
D03*
X1101350D02*
D03*
X1094850D02*
D03*
X1088350D02*
D03*
X1081850D02*
D03*
X1075350D02*
D03*
D24*
X1031240Y298450D02*
D03*
X1051400D02*
D03*
X1051560Y276225D02*
D03*
X1031400D02*
D03*
X187960Y427585D02*
D03*
X167800D02*
D03*
X183515Y285750D02*
D03*
X203675D02*
D03*
X165735D02*
D03*
X145575D02*
D03*
D25*
X993775Y348615D02*
D03*
Y368775D02*
D03*
X765175Y345440D02*
D03*
Y365600D02*
D03*
X708025Y345440D02*
D03*
Y365600D02*
D03*
X50800Y422910D02*
D03*
Y402750D02*
D03*
Y364490D02*
D03*
Y384650D02*
D03*
X241300Y276860D02*
D03*
Y256700D02*
D03*
X107950Y180340D02*
D03*
Y200500D02*
D03*
D26*
X952500Y401100D02*
D03*
X939800D02*
D03*
X927100D02*
D03*
X914400D02*
D03*
X901700D02*
D03*
X889000D02*
D03*
X876300D02*
D03*
X863600D02*
D03*
X850900D02*
D03*
X838200D02*
D03*
X825500D02*
D03*
X812800D02*
D03*
X952500Y310100D02*
D03*
X939800D02*
D03*
X927100D02*
D03*
X914400D02*
D03*
X901700D02*
D03*
X889000D02*
D03*
X876300D02*
D03*
X863600D02*
D03*
X850900D02*
D03*
X838200D02*
D03*
X825500D02*
D03*
X812800D02*
D03*
D27*
X746350Y330600D02*
D03*
X739850D02*
D03*
X733350D02*
D03*
X726850D02*
D03*
Y380600D02*
D03*
X733350D02*
D03*
X739850D02*
D03*
X746350D02*
D03*
D28*
X512900Y447700D02*
D03*
Y466700D02*
D03*
X490400Y457200D02*
D03*
X411300Y447700D02*
D03*
Y466700D02*
D03*
X388800Y457200D02*
D03*
D29*
X219800Y383600D02*
D03*
Y375600D02*
D03*
Y367600D02*
D03*
Y359600D02*
D03*
Y351600D02*
D03*
Y343600D02*
D03*
Y335600D02*
D03*
Y327600D02*
D03*
X135800D02*
D03*
Y335600D02*
D03*
Y343600D02*
D03*
Y351600D02*
D03*
Y359600D02*
D03*
Y367600D02*
D03*
Y375600D02*
D03*
Y383600D02*
D03*
D30*
X205800Y313600D02*
D03*
X197800D02*
D03*
X189800D02*
D03*
X181800D02*
D03*
X173800D02*
D03*
X165800D02*
D03*
X157800D02*
D03*
X149800D02*
D03*
Y397600D02*
D03*
X157800D02*
D03*
X165800D02*
D03*
X173800D02*
D03*
X181800D02*
D03*
X189800D02*
D03*
X197800D02*
D03*
X205800D02*
D03*
D31*
X260350Y222504D02*
D03*
Y158500D02*
D03*
D32*
X135550Y156000D02*
D03*
X142050D02*
D03*
X148550D02*
D03*
X155050D02*
D03*
X161550D02*
D03*
X168050D02*
D03*
X174550D02*
D03*
X181050D02*
D03*
X187550D02*
D03*
X194050D02*
D03*
X200550D02*
D03*
X207050D02*
D03*
X213550D02*
D03*
X220050D02*
D03*
X135550Y225000D02*
D03*
X142050D02*
D03*
X148550D02*
D03*
X155050D02*
D03*
X161550D02*
D03*
X168050D02*
D03*
X174550D02*
D03*
X181050D02*
D03*
X187550D02*
D03*
X194050D02*
D03*
X200550D02*
D03*
X207050D02*
D03*
X213550D02*
D03*
X220050D02*
D03*
D33*
X708025Y365600D02*
X724375D01*
X704850D02*
X708025D01*
X300590Y386650D02*
X337645D01*
X280840Y406400D02*
X300590Y386650D01*
X266700Y406400D02*
X280840D01*
X305560Y398650D02*
X342616D01*
X288975Y415235D02*
X305560Y398650D01*
X288975Y415235D02*
Y431400D01*
X303075Y392650D02*
X340131D01*
X250825Y419300D02*
X276425D01*
X247850Y422275D02*
X250825Y419300D01*
X238804Y371475D02*
X257175D01*
X235279Y367950D02*
X238804Y371475D01*
X257175D02*
X266700Y381000D01*
X238125D02*
X244475D01*
X232725Y375600D02*
X238125Y381000D01*
X219800Y375600D02*
X232725D01*
X231200Y383600D02*
X241300Y393700D01*
X238950Y359600D02*
X241300Y361950D01*
X246971Y355600D02*
X266700D01*
X242971Y351600D02*
X246971Y355600D01*
X250350Y345600D02*
X250825Y346075D01*
X260350Y342900D02*
X276225D01*
X252975Y335525D02*
X260350Y342900D01*
X252975Y324960D02*
Y335525D01*
X229325Y397600D02*
X234950Y403225D01*
X193675Y412750D02*
X247650D01*
X234950Y422275D02*
X247850D01*
X241300Y431800D02*
X253800Y444300D01*
X234950Y336550D02*
X244475D01*
X237550Y327600D02*
X238125Y327025D01*
X225765Y316800D02*
X244815D01*
X228250Y310800D02*
X247300D01*
X218125Y300675D02*
X228250Y310800D01*
X230735Y304800D02*
X266700D01*
X222250Y296315D02*
X230735Y304800D01*
X219800Y351600D02*
X242971D01*
X220150Y367950D02*
X235279D01*
X219800Y359600D02*
X238950D01*
X219800Y383600D02*
X231200D01*
X205800Y397600D02*
X229325D01*
X222565Y313600D02*
X225765Y316800D01*
X244815D02*
X252975Y324960D01*
X233500Y343600D02*
X235500Y345600D01*
X250350D01*
X219800Y343600D02*
X233500D01*
X247300Y310800D02*
X266700Y330200D01*
X197800Y384175D02*
Y397600D01*
X187800Y355804D02*
Y374175D01*
X197800Y384175D01*
X187800Y355804D02*
X193675Y349929D01*
Y330200D02*
Y349929D01*
X181800Y353319D02*
Y397600D01*
Y353319D02*
X186300Y348819D01*
Y336550D02*
Y348819D01*
X181800Y313600D02*
Y332050D01*
X186300Y336550D01*
X161925Y333375D02*
Y361950D01*
X157800Y313600D02*
Y329250D01*
X161925Y333375D01*
X152400Y368300D02*
Y373950D01*
X165800Y387350D01*
X151575Y351600D02*
X152400Y352425D01*
X196850Y358775D02*
X204025Y351600D01*
X149800Y333950D02*
X152400Y336550D01*
X149800Y313600D02*
Y333950D01*
X906526Y344551D02*
X974725D01*
X889000Y327025D02*
X906526Y344551D01*
X889000Y310100D02*
Y327025D01*
X965200Y293525D02*
Y327025D01*
X955675Y336550D02*
X965200Y327025D01*
X923925Y336550D02*
X955675D01*
X914400Y327025D02*
X923925Y336550D01*
X1123600Y348900D02*
X1159225D01*
X1114350Y339650D02*
X1123600Y348900D01*
X1114350Y321100D02*
Y339650D01*
X1159225Y348900D02*
X1177925Y330200D01*
X774700Y231775D02*
X863600D01*
X746350Y260125D02*
X774700Y231775D01*
X746350Y260125D02*
Y330600D01*
X863600Y231775D02*
X868925Y237100D01*
Y247650D01*
X812800Y310100D02*
Y346075D01*
X806100Y352775D02*
X812800Y346075D01*
X800790Y352775D02*
X806100D01*
X782100Y371465D02*
X800790Y352775D01*
X782100Y371465D02*
Y427575D01*
X493150Y488950D02*
Y500625D01*
X482600Y511175D02*
X493150Y500625D01*
X468860Y511175D02*
X482600D01*
X459685Y520350D02*
X468860Y511175D01*
X401090Y504825D02*
X416615Y520350D01*
X377825Y504825D02*
X401090D01*
X367950Y494950D02*
X377825Y504825D01*
X416615Y520350D02*
X459685D01*
X342616Y398650D02*
X370775Y370491D01*
X340131Y392650D02*
X364775Y368006D01*
X337645Y386650D02*
X358775Y365521D01*
X819000Y33100D02*
Y44600D01*
X799600Y64000D02*
X819000Y44600D01*
X799600Y64000D02*
Y140156D01*
X787400Y63500D02*
Y135386D01*
X768200Y44300D02*
X787400Y63500D01*
X768200Y33100D02*
Y44300D01*
X606425Y42475D02*
Y62460D01*
X593775Y75111D02*
X606425Y62460D01*
X383086Y75111D02*
X593775D01*
X600075Y42775D02*
Y60325D01*
X591289Y69110D02*
X600075Y60325D01*
X380600Y69110D02*
X591289D01*
X701675Y42775D02*
Y57255D01*
X665819Y93111D02*
X701675Y57255D01*
X390541Y93111D02*
X665819D01*
X717400Y33100D02*
Y50015D01*
X668304Y99110D02*
X717400Y50015D01*
X393027Y99110D02*
X668304D01*
X692000Y33100D02*
X701675Y42775D01*
X650875D02*
Y58190D01*
X627954Y81110D02*
X650875Y58190D01*
X385571Y81110D02*
X627954D01*
X630439Y87111D02*
X656875Y60675D01*
Y42825D02*
Y60675D01*
Y42825D02*
X666600Y33100D01*
X388056Y87111D02*
X630439D01*
X641200Y33100D02*
X650875Y42775D01*
X606425Y42475D02*
X615800Y33100D01*
X590400D02*
X600075Y42775D01*
X1155700Y411710D02*
X1159850Y407560D01*
Y390100D02*
Y407560D01*
X1155700Y411710D02*
Y425450D01*
X1153350Y390100D02*
Y405575D01*
X1146350Y412575D02*
X1153350Y405575D01*
X1146350Y412575D02*
Y485600D01*
X1136650Y495300D02*
X1146350Y485600D01*
X1133775Y469600D02*
X1140350Y463025D01*
Y390100D02*
Y463025D01*
X168050Y156000D02*
Y171450D01*
X165100Y174400D02*
X168050Y171450D01*
X165100Y174400D02*
Y180975D01*
X171600Y190500D02*
X181050Y199950D01*
X161208Y190500D02*
X171600D01*
X155050Y184342D02*
X161208Y190500D01*
X177800Y342900D02*
Y348425D01*
Y337375D02*
Y342900D01*
X173800Y313600D02*
Y333375D01*
X177800Y337375D01*
X173800Y352425D02*
Y397600D01*
Y352425D02*
X177800Y348425D01*
X276225Y254000D02*
X288925Y241300D01*
X266700Y254000D02*
X276225D01*
X288925Y160786D02*
Y241300D01*
Y160786D02*
X380600Y69110D01*
X165100Y482600D02*
X177800Y495300D01*
X126535Y383600D02*
X135800D01*
X282575Y256135D02*
X294925Y243785D01*
Y163271D02*
Y243785D01*
Y163271D02*
X383086Y75111D01*
X165800Y387350D02*
Y397600D01*
X135800Y351600D02*
X151575D01*
X539750Y479425D02*
Y495300D01*
X527025Y466700D02*
X539750Y479425D01*
X512900Y466700D02*
X527025D01*
X119950Y343600D02*
X135800D01*
X117475Y346075D02*
X119950Y343600D01*
X117475Y333375D02*
X119700Y335600D01*
X135800D01*
X88900Y292100D02*
Y342900D01*
X105600Y359600D02*
X135800D01*
X88900Y342900D02*
X105600Y359600D01*
X88900Y292100D02*
X101600Y279400D01*
X1231900Y290700D02*
Y292100D01*
X1270000Y444500D02*
X1295400D01*
X1257300D02*
X1270000D01*
X844200Y331700D02*
X850900Y325000D01*
Y310100D02*
Y325000D01*
X825500Y322810D02*
X831850Y329160D01*
X904875Y371475D02*
X914400Y381000D01*
X860425Y371475D02*
X904875D01*
X850900Y381000D02*
X860425Y371475D01*
X889000Y401100D02*
Y415925D01*
X885950Y418975D02*
Y438025D01*
Y418975D02*
X889000Y415925D01*
X830225Y417475D02*
X860550D01*
X873050Y429975D01*
X825500Y412750D02*
X830225Y417475D01*
X825500Y401100D02*
Y412750D01*
X847650Y429975D02*
X862175Y444500D01*
X879475D01*
X885950Y438025D01*
X974725Y260350D02*
X987425Y247650D01*
X1044575D01*
X1051560Y254635D01*
Y276225D01*
X1117600Y495300D02*
X1136650D01*
X1104900Y508000D02*
X1117600Y495300D01*
X1117900Y469600D02*
X1133775D01*
X1104900Y482600D02*
X1117900Y469600D01*
X1165225Y262001D02*
X1173226D01*
X1177925Y266700D01*
Y330200D01*
X1153350Y307150D02*
X1155700Y304800D01*
X1162050D01*
X1165225Y301625D01*
Y290225D02*
Y301625D01*
X1152175Y248699D02*
X1158175Y242700D01*
X1231900D01*
X1152175Y248699D02*
Y297760D01*
X1146850Y303085D02*
X1152175Y297760D01*
X1146850Y303085D02*
Y321100D01*
X1146175Y273050D02*
Y295275D01*
X1140350Y301100D02*
Y321100D01*
Y301100D02*
X1146175Y295275D01*
X1153350Y307150D02*
Y321100D01*
X1114425Y290449D02*
X1122426D01*
X1128150Y284725D01*
X1133475D01*
Y267589D02*
X1140714D01*
X1146175Y273050D01*
X1133850Y285100D02*
Y321100D01*
X1133475Y284725D02*
X1133850Y285100D01*
X1094350Y248300D02*
X1152525Y190126D01*
Y180975D02*
Y190126D01*
Y180975D02*
X1168400Y165100D01*
X1082350Y243330D02*
X1133475Y192205D01*
Y180975D02*
Y192205D01*
X1117600Y165100D02*
X1133475Y180975D01*
X1082350Y243330D02*
Y298100D01*
X1075350Y305100D02*
X1082350Y298100D01*
X1075350Y305100D02*
Y321100D01*
X1094350Y248300D02*
Y297425D01*
X1101350Y304425D01*
Y321100D01*
X1133850Y340100D02*
X1136650Y342900D01*
X1133850Y321100D02*
Y340100D01*
X1136650Y342900D02*
X1155700D01*
X1159850Y338750D01*
Y321100D02*
Y338750D01*
X215900Y177800D02*
X257175D01*
X260350Y158500D02*
Y174625D01*
X257175Y177800D02*
X260350Y174625D01*
X209550Y196850D02*
X254000D01*
X260350Y203200D01*
X205675Y256475D02*
X222250Y273050D01*
Y296315D01*
X130175Y269525D02*
Y298450D01*
X143225Y256475D02*
X205675D01*
X241300Y241300D02*
Y256700D01*
X234950Y234950D02*
X241300Y241300D01*
X130175Y269525D02*
X143225Y256475D01*
X145575Y273525D02*
X149225Y269875D01*
X200025D01*
X203675Y273525D01*
Y285750D01*
X181800Y298450D02*
Y313600D01*
Y298450D02*
X183515Y296735D01*
X165735Y285750D02*
X165800Y285815D01*
Y313600D01*
X165735Y285750D02*
X183515D01*
X181800Y313600D02*
X181800Y313600D01*
X203200Y495300D02*
Y533400D01*
X209550Y539750D01*
Y571500D01*
X190500Y482600D02*
X203200Y469900D01*
X190500Y482600D02*
Y511175D01*
X186436Y515239D02*
X190500Y511175D01*
X186436Y515239D02*
Y533400D01*
X158750D02*
X169300D01*
X152400Y527050D02*
X158750Y533400D01*
X152400Y495300D02*
Y527050D01*
X387350Y361950D02*
X425450D01*
X433832Y370332D01*
Y393700D01*
X488950Y361950D02*
X527050D01*
X535432Y370332D01*
Y393700D01*
X463550Y361950D02*
Y374650D01*
X467850Y378950D01*
Y393700D01*
X565150Y361950D02*
Y374650D01*
X569450Y378950D01*
Y393700D01*
X213550Y205550D02*
X216250Y202850D01*
X231425D01*
X234950Y206375D01*
Y234950D01*
X173800Y397600D02*
Y412291D01*
X50800Y384650D02*
Y402750D01*
X739775Y407289D02*
X739850Y407214D01*
Y380600D02*
Y407214D01*
X746350Y343125D02*
X748665Y345440D01*
X765175D01*
X736600Y365125D02*
X764700D01*
X704850Y345440D02*
X708025D01*
X868925Y247650D02*
X962025D01*
X974725Y260350D01*
Y344551D01*
X860425Y283335D02*
X867665Y290575D01*
X860425Y266700D02*
Y283335D01*
X851789Y258064D02*
X860425Y266700D01*
X851789Y247650D02*
Y258064D01*
X867665Y290575D02*
X871600D01*
X876300Y295275D01*
Y310100D01*
X863600Y295275D02*
Y310100D01*
X860425Y292100D02*
X863600Y295275D01*
X850900Y292100D02*
X860425D01*
X847650Y288850D02*
X850900Y292100D01*
X847650Y277575D02*
Y288850D01*
X1019175Y298450D02*
X1031240D01*
X1009650Y307975D02*
Y365125D01*
Y307975D02*
X1019175Y298450D01*
X1006000Y368775D02*
X1009650Y365125D01*
X993775Y368775D02*
X1006000D01*
X1031240Y276385D02*
X1031400Y276225D01*
X1031240Y276385D02*
Y298450D01*
X1050925Y298925D02*
X1051400Y298450D01*
X1050925Y298925D02*
Y322550D01*
X1074925Y390525D02*
X1075350Y390100D01*
X1055624Y390525D02*
X1074925D01*
X1020475Y322550D02*
X1028700D01*
X1016000Y327025D02*
X1020475Y322550D01*
X1016000Y327025D02*
Y368300D01*
X1027400Y379700D01*
Y390525D01*
X914400Y381000D02*
Y401100D01*
Y381000D02*
X922625Y372775D01*
X974725D01*
Y344551D02*
X982726D01*
X986790Y348615D01*
X993775D01*
X974725Y372775D02*
X982950D01*
X986950Y368775D01*
X993775D01*
X733350Y368375D02*
X736600Y365125D01*
X733350Y368375D02*
Y380600D01*
X746350Y330600D02*
Y343125D01*
X724375Y365600D02*
X726850Y368075D01*
X739850Y330600D02*
Y342214D01*
X726850Y368075D02*
Y380600D01*
X312925Y250135D02*
X328775Y265985D01*
X318925Y247650D02*
X334775Y263500D01*
X324925Y245165D02*
X340775Y261015D01*
X330925Y242680D02*
X346775Y258530D01*
X336925Y240194D02*
X352775Y256044D01*
X342925Y237709D02*
X358775Y253559D01*
X696704Y177100D02*
X762656D01*
X642715Y123110D02*
X696704Y177100D01*
X402968Y123110D02*
X642715D01*
X699190Y171100D02*
X760171D01*
X645200Y117110D02*
X699190Y171100D01*
X400482Y117110D02*
X645200D01*
X701675Y165100D02*
X757686D01*
X647685Y111110D02*
X701675Y165100D01*
X397997Y111110D02*
X647685D01*
X762656Y177100D02*
X799600Y140156D01*
X760171Y171100D02*
X793600Y137671D01*
X757686Y165100D02*
X787400Y135386D01*
X342925Y183153D02*
Y237709D01*
Y183153D02*
X402968Y123110D01*
X793600Y33100D02*
Y137671D01*
X336925Y180668D02*
X400482Y117110D01*
X336925Y180668D02*
Y240194D01*
X330925Y178183D02*
X397997Y111110D01*
X330925Y178183D02*
Y242680D01*
X266700Y381000D02*
X267050Y380650D01*
X266700Y355600D02*
X285750Y374650D01*
X324925Y175697D02*
Y245165D01*
X318925Y173212D02*
Y247650D01*
X312925Y170727D02*
Y250135D01*
X306925Y168242D02*
Y248756D01*
X300925Y165756D02*
Y246271D01*
X324925Y175697D02*
X395512Y105111D01*
X318925Y173212D02*
X393027Y99110D01*
X312925Y170727D02*
X390541Y93111D01*
X306925Y168242D02*
X388056Y87111D01*
X300925Y165756D02*
X385571Y81110D01*
X395512Y105111D02*
X670789D01*
X742800Y33100D01*
X294575Y261106D02*
X306925Y248756D01*
X288575Y258620D02*
X300925Y246271D01*
X266700Y330200D02*
X276225D01*
X197800Y302900D02*
Y313600D01*
X200025Y300675D02*
X218125D01*
X197800Y302900D02*
X200025Y300675D01*
X135800Y304075D02*
Y327600D01*
X130175Y298450D02*
X135800Y304075D01*
X949250Y277575D02*
X965200Y293525D01*
X912975Y292100D02*
X923925D01*
X898450Y277575D02*
X912975Y292100D01*
X887575D02*
X898525D01*
X873050Y277575D02*
X887575Y292100D01*
X923850Y277575D02*
X939800Y293525D01*
X220050Y225000D02*
Y240325D01*
X209900Y250475D02*
X220050Y240325D01*
X127350Y250475D02*
X209900D01*
X123825Y254000D02*
X127350Y250475D01*
X101600Y254000D02*
X123825D01*
X194050Y225000D02*
Y238125D01*
X114300Y234950D02*
X123825Y244475D01*
X187700D02*
X194050Y238125D01*
X123825Y244475D02*
X187700D01*
X1074925Y320675D02*
X1075350Y321100D01*
X1066800Y320675D02*
X1074925D01*
X1064925Y322550D02*
X1066800Y320675D01*
X1050925Y322550D02*
X1064925D01*
X1028700D02*
X1050925D01*
X1143000Y165100D02*
Y191165D01*
X1088350Y245815D02*
X1143000Y191165D01*
X1088350Y245815D02*
Y321100D01*
X1101350Y374650D02*
Y390100D01*
X1031875Y368300D02*
X1095000D01*
X1101350Y374650D01*
X1028700Y365125D02*
X1031875Y368300D01*
X1028700Y350774D02*
Y365125D01*
X1050925Y350774D02*
X1097026D01*
X1107850Y339950D01*
Y321100D02*
Y339950D01*
X1123950Y412750D02*
Y423926D01*
X1114350Y403150D02*
X1123950Y412750D01*
X1114350Y390100D02*
Y403150D01*
X1112321Y410646D02*
Y441778D01*
X1101725Y452374D02*
X1112321Y441778D01*
X1107850Y406175D02*
X1112321Y410646D01*
X1107850Y390100D02*
Y406175D01*
X1101725Y409575D02*
Y424150D01*
X1094850Y402700D02*
X1101725Y409575D01*
X1094850Y390100D02*
Y402700D01*
X1090096Y412253D02*
Y441778D01*
X1079500Y452374D02*
X1090096Y441778D01*
X1088350Y410507D02*
X1090096Y412253D01*
X1088350Y390100D02*
Y410507D01*
X1079500Y406400D02*
Y424150D01*
Y406400D02*
X1081850Y404050D01*
Y390100D02*
Y404050D01*
X923850Y429975D02*
Y441400D01*
X825500Y310100D02*
Y322810D01*
X898450Y429975D02*
Y444575D01*
X939800Y420525D02*
X949250Y429975D01*
X939800Y401100D02*
Y420525D01*
X914400Y310100D02*
Y327025D01*
X898525Y292100D02*
X901700Y295275D01*
Y310100D01*
X923925Y292100D02*
X927100Y295275D01*
Y310100D01*
X939800Y293525D02*
Y310100D01*
X411300Y466700D02*
X512900D01*
X467850Y393700D02*
Y405275D01*
X463550Y409575D02*
X467850Y405275D01*
X463550Y409575D02*
Y419100D01*
X569450Y393700D02*
Y405275D01*
X565150Y409575D02*
X569450Y405275D01*
X565150Y409575D02*
Y419100D01*
X535432Y393700D02*
X552450Y410718D01*
Y434975D01*
X539725Y447700D02*
X552450Y434975D01*
X512900Y447700D02*
X539725D01*
X433832Y393700D02*
X450850Y410718D01*
Y434975D01*
X438125Y447700D02*
X450850Y434975D01*
X411300Y447700D02*
X438125D01*
X527050Y419100D02*
X539750D01*
X520700Y425450D02*
X527050Y419100D01*
X510150Y425450D02*
X520700D01*
X425450Y419100D02*
X438150D01*
X419100Y425450D02*
X425450Y419100D01*
X408550Y425450D02*
X419100D01*
X381000Y457200D02*
X388800D01*
X381000Y425450D02*
X391414D01*
X377825Y454025D02*
X381000Y457200D01*
X377825Y428625D02*
Y454025D01*
Y428625D02*
X381000Y425450D01*
X482600Y457200D02*
X490400D01*
X479425Y454025D02*
X482600Y457200D01*
X479425Y428625D02*
Y454025D01*
Y428625D02*
X482600Y425450D01*
X493014D01*
X510286Y488950D02*
Y503936D01*
X520700Y514350D01*
X558800D01*
X565150Y508000D01*
Y495300D02*
Y508000D01*
X408686Y488950D02*
Y503936D01*
X419100Y514350D01*
X457200D01*
X463550Y508000D01*
Y495300D02*
Y508000D01*
X146300Y571500D02*
X171450D01*
X186436Y556514D01*
Y533400D02*
Y556514D01*
X76200Y368300D02*
X88900D01*
X72390Y364490D02*
X76200Y368300D01*
X50800Y364490D02*
X72390D01*
X76200Y419100D02*
X88900D01*
X72390Y422910D02*
X76200Y419100D01*
X50800Y422910D02*
X72390D01*
X88900Y368300D02*
Y373000D01*
X95250Y379350D01*
X88900Y393700D02*
Y419100D01*
Y393700D02*
X95250Y387350D01*
X113815Y379350D02*
X125565Y367600D01*
X95250Y379350D02*
X113815D01*
X125565Y367600D02*
X135800D01*
X95250Y387350D02*
X114300D01*
X126050Y375600D01*
X135800D01*
X190500Y177800D02*
X198200D01*
X177800D02*
X190500D01*
Y190500D01*
X181050Y199950D02*
X190500Y190500D01*
X181050Y199950D02*
Y225000D01*
X168050Y130400D02*
Y156000D01*
X190300Y108712D02*
Y120850D01*
X171450Y127000D02*
X184150D01*
X168050Y130400D02*
X171450Y127000D01*
X184150D02*
X190300Y120850D01*
X155050Y156000D02*
Y184342D01*
X174550Y174550D02*
Y174700D01*
X198200Y177800D02*
X207050Y168950D01*
X174550Y174550D02*
X177800Y177800D01*
X174550Y156000D02*
Y174550D01*
X200550Y156000D02*
X207050D01*
Y168950D01*
X215900Y177800D01*
X200550Y205850D02*
Y225000D01*
Y205850D02*
X209550Y196850D01*
X213550Y205550D02*
Y225000D01*
X76200Y241300D02*
Y254000D01*
Y241300D02*
X82550Y234950D01*
X114300D01*
X121261Y184150D02*
X146050D01*
X117451Y180340D02*
X121261Y184150D01*
X117451Y200500D02*
X127801Y190150D01*
X107950Y180340D02*
X117451D01*
X127801Y190150D02*
X149242D01*
X146050Y184150D02*
X148550Y181650D01*
Y156000D02*
Y181650D01*
X149242Y190150D02*
X155050Y184342D01*
X149558Y88900D02*
X165100D01*
X135550Y102908D02*
X149558Y88900D01*
X157988Y101600D02*
X165100Y108712D01*
X146050Y101600D02*
X157988D01*
X135550Y102908D02*
Y156000D01*
X142050Y105600D02*
X146050Y101600D01*
X142050Y105600D02*
Y156000D01*
X107950Y402185D02*
X126535Y383600D01*
X113950Y404670D02*
X121020Y397600D01*
X107950Y402185D02*
Y463550D01*
X127000Y482600D01*
X165100D01*
X113950Y404670D02*
Y461065D01*
X122785Y469900D01*
X152400D01*
X121020Y397600D02*
X149800D01*
X189800D02*
Y408875D01*
X193675Y412750D01*
X167800Y418291D02*
Y427585D01*
Y418291D02*
X173800Y412291D01*
X181800Y397600D02*
Y410400D01*
X187960Y416560D01*
Y427585D01*
X234950Y466725D02*
X257175Y488950D01*
X391550D01*
X228950Y469210D02*
X254690Y494950D01*
X367950D01*
X228950Y463900D02*
Y469210D01*
X234950Y461415D02*
Y466725D01*
X156615Y454025D02*
X219075D01*
X228950Y463900D01*
X159100Y448025D02*
X221560D01*
X234950Y461415D01*
X152400Y441325D02*
X159100Y448025D01*
X200550Y123300D02*
Y156000D01*
Y123300D02*
X206375Y117475D01*
Y92075D02*
Y117475D01*
X203200Y88900D02*
X206375Y92075D01*
X190300Y88900D02*
X203200D01*
X157800Y397600D02*
Y407350D01*
X152400Y428625D02*
Y441325D01*
X152400Y425450D02*
X152400Y428625D01*
X142875Y422275D02*
X157800Y407350D01*
X142875Y422275D02*
Y440285D01*
X156615Y454025D01*
X241300Y276860D02*
Y292100D01*
X708025Y345440D02*
X736624D01*
X739850Y342214D01*
X219800Y327600D02*
X237550D01*
X205800Y313600D02*
X222565D01*
X316611Y323850D02*
X323850D01*
X328775Y318925D01*
Y265985D02*
Y318925D01*
X291060Y323850D02*
X299475D01*
X280987Y333923D02*
X291060Y323850D01*
X280987Y333923D02*
Y338138D01*
X276225Y342900D02*
X280987Y338138D01*
X219800Y335600D02*
X234000D01*
X234950Y336550D01*
X831850Y329160D02*
Y349250D01*
X838200Y310100D02*
Y351385D01*
X844200Y331700D02*
Y353871D01*
X822325Y358775D02*
X831850Y349250D01*
X824810Y364775D02*
X838200Y351385D01*
X827296Y370775D02*
X844200Y353871D01*
X788100Y373950D02*
Y427245D01*
Y373950D02*
X803275Y358775D01*
X822325D01*
X794100Y376435D02*
X805760Y364775D01*
X824810D01*
X800100Y378921D02*
X808245Y370775D01*
X827296D01*
X800100Y378921D02*
Y422275D01*
X807800Y429975D01*
X822250D01*
X794100Y376435D02*
Y424760D01*
X952500Y401100D02*
Y412750D01*
X965200Y425450D01*
X334775Y263500D02*
Y338325D01*
X330200Y342900D02*
X334775Y338325D01*
X316611Y342900D02*
X330200D01*
X340775Y261015D02*
Y354550D01*
X333375Y361950D02*
X340775Y354550D01*
X316611Y361950D02*
X333375D01*
X346775Y258530D02*
Y360550D01*
X332675Y374650D02*
X346775Y360550D01*
X285750Y374650D02*
X332675D01*
X352775Y256044D02*
Y363035D01*
X335160Y380650D02*
X352775Y363035D01*
X267050Y380650D02*
X335160D01*
X358775Y253559D02*
Y365521D01*
X375690Y333025D02*
X590200D01*
X364775Y343940D02*
X375690Y333025D01*
X364775Y343940D02*
Y368006D01*
X370775Y346425D02*
X378175Y339025D01*
X370775Y346425D02*
Y370491D01*
X378175Y339025D02*
X587715D01*
X253800Y444300D02*
X276075D01*
X247650Y412750D02*
X254000Y406400D01*
X266700D01*
X219800Y367600D02*
X220150Y367950D01*
X428625Y349250D02*
X432850Y345025D01*
X585229D01*
X276425Y419300D02*
X303075Y392650D01*
X276075Y444300D02*
X288975Y431400D01*
X276225Y330200D02*
X285750Y320675D01*
X266700Y304800D02*
X279400D01*
X288575Y295625D01*
Y258620D02*
Y295625D01*
X285750Y306935D02*
Y320675D01*
Y306935D02*
X294575Y298110D01*
Y261106D02*
Y298110D01*
X266700Y279400D02*
X276225D01*
X282575Y273050D01*
Y256135D02*
Y273050D01*
X368300Y327025D02*
X593725D01*
X691125Y424425D01*
X739775D01*
X590200Y333025D02*
X698500Y441325D01*
X587715Y339025D02*
X690015Y441325D01*
X690015D01*
X696015Y447325D01*
X585229Y345025D02*
X693529Y453325D01*
X805694D01*
X696015Y447325D02*
X781400D01*
X787400Y441325D01*
X698500D02*
X768350D01*
X782100Y427575D01*
X794100Y424760D02*
X819840Y450500D01*
X892525D01*
X898450Y444575D01*
X788100Y427245D02*
X817355Y456500D01*
X805694Y453325D02*
X814869Y462500D01*
X908750Y456500D02*
X923850Y441400D01*
X965200Y425450D02*
Y438150D01*
X814869Y462500D02*
X940850D01*
X965200Y438150D01*
X817355Y456500D02*
X908750D01*
X1377950Y334800D02*
Y336550D01*
X850900Y381000D02*
Y400050D01*
Y401100D01*
X204025Y351600D02*
X219800D01*
X260350Y203200D02*
Y222250D01*
Y222504D01*
X187960Y427585D02*
X202160D01*
X203200Y428625D01*
X183515Y285750D02*
Y296735D01*
X107950Y200500D02*
X117451D01*
X145575Y273525D02*
Y285750D01*
X764700Y365125D02*
X765175Y365600D01*
D34*
X1291300Y350000D02*
Y389600D01*
X1295400Y393700D02*
Y419100D01*
X1291300Y389600D02*
X1295400Y393700D01*
X1231900Y292100D02*
Y311150D01*
X1295400Y444500D02*
X1323975D01*
X1257300Y350000D02*
Y444500D01*
X1295400Y212725D02*
Y231950D01*
Y212725D02*
X1301750Y206375D01*
X1428750D01*
X1441450Y219075D01*
Y441325D01*
X1414826Y467949D02*
X1441450Y441325D01*
X1377950Y467949D02*
X1414826D01*
X1231900Y242700D02*
X1255900D01*
X1266650Y231950D01*
X1295400D01*
X1347424Y467949D02*
X1377950D01*
X1323975Y444500D02*
X1347424Y467949D01*
X1320800Y323850D02*
X1331750Y334800D01*
X1279525Y323850D02*
X1320800D01*
X1274300Y329075D02*
X1279525Y323850D01*
X1274300Y329075D02*
Y350000D01*
X1411986Y234950D02*
Y321564D01*
X1398750Y334800D02*
X1411986Y321564D01*
X1223300Y319750D02*
X1231900Y311150D01*
X1223300Y319750D02*
Y350000D01*
X1295400Y231950D02*
X1320975D01*
X1323975Y234950D01*
X1335024D01*
X1370050D02*
X1394850D01*
X1377950Y336550D02*
Y382951D01*
Y334800D02*
X1398750D01*
X1331750D02*
X1377950D01*
D35*
X609600Y234950D02*
X714375D01*
X590550Y209550D02*
X609600D01*
X584200Y215900D02*
X590550Y209550D01*
X584200Y215900D02*
Y269875D01*
X593725Y279400D01*
X714375D01*
X609600Y260350D02*
X717550D01*
D36*
X714375Y234950D02*
X739850Y260425D01*
Y330600D01*
X714375Y279400D02*
X726850Y291875D01*
Y330600D01*
X717550Y260350D02*
X733350Y276150D01*
Y330600D01*
D37*
X1240300Y328150D02*
X1267000Y301450D01*
X1295400D01*
Y279400D02*
Y301450D01*
Y279400D02*
X1300000Y274800D01*
X1377950D01*
X1240300Y328150D02*
Y350000D01*
D38*
X203200Y495300D02*
D03*
Y469900D02*
D03*
X177800Y495300D02*
D03*
Y469900D02*
D03*
X152400Y495300D02*
D03*
X1130300Y508000D02*
D03*
X1104900D02*
D03*
Y482600D02*
D03*
X1130300D02*
D03*
X101600Y279400D02*
D03*
Y304800D02*
D03*
X76200D02*
D03*
Y279400D02*
D03*
X819000Y33100D02*
D03*
X793600D02*
D03*
X768200D02*
D03*
X742800D02*
D03*
X717400D02*
D03*
X692000D02*
D03*
X666600D02*
D03*
X641200D02*
D03*
X615800D02*
D03*
X590400D02*
D03*
X539750Y495300D02*
D03*
X565150Y419100D02*
D03*
X539750D02*
D03*
X438150Y495300D02*
D03*
X463550Y419100D02*
D03*
X438150D02*
D03*
X88900D02*
D03*
Y368300D02*
D03*
X822250Y277575D02*
D03*
X847650Y429975D02*
D03*
X822250D02*
D03*
X873050D02*
D03*
X898450D02*
D03*
X923850D02*
D03*
X949250D02*
D03*
X847650Y277575D02*
D03*
X873050D02*
D03*
X898450D02*
D03*
X923850D02*
D03*
X949250D02*
D03*
X190300Y88900D02*
D03*
X165100D02*
D03*
Y108712D02*
D03*
X190300D02*
D03*
D39*
X152400Y469900D02*
D03*
X1079500Y508000D02*
D03*
Y482600D02*
D03*
X565000Y33100D02*
D03*
D40*
X1117600Y165100D02*
D03*
X1143000D02*
D03*
X266700Y457200D02*
D03*
Y431800D02*
D03*
Y406400D02*
D03*
Y381000D02*
D03*
Y355600D02*
D03*
Y330200D02*
D03*
Y304800D02*
D03*
Y279400D02*
D03*
Y254000D02*
D03*
D41*
X1168400Y165100D02*
D03*
D42*
X101600Y254000D02*
D03*
X76200D02*
D03*
X565150Y495300D02*
D03*
X463550D02*
D03*
D43*
X609600Y209550D02*
D03*
Y234950D02*
D03*
Y260350D02*
D03*
D44*
X901700Y603250D02*
D03*
X850900D02*
D03*
X1003300D02*
D03*
X952500D02*
D03*
X1104900D02*
D03*
X1054100D02*
D03*
X1206500D02*
D03*
X1155700D02*
D03*
X609600D02*
D03*
X558800D02*
D03*
X508000D02*
D03*
X457200D02*
D03*
X406400D02*
D03*
X355600D02*
D03*
D45*
X1225070Y117324D02*
D03*
D46*
X1197370D02*
D03*
X1169670D02*
D03*
X1141730D02*
D03*
X1114044D02*
D03*
X1211170Y88900D02*
D03*
X1183470D02*
D03*
X1155700D02*
D03*
X1128014D02*
D03*
D47*
X1294670Y103124D02*
D03*
X1044448D02*
D03*
D48*
X565150Y361950D02*
D03*
Y285750D02*
D03*
Y234950D02*
D03*
Y184150D02*
D03*
X488950D02*
D03*
Y234950D02*
D03*
Y285750D02*
D03*
Y361950D02*
D03*
X463550D02*
D03*
Y285750D02*
D03*
Y234950D02*
D03*
Y184150D02*
D03*
X387350D02*
D03*
Y234950D02*
D03*
Y285750D02*
D03*
Y361950D02*
D03*
D49*
X117602Y61722D02*
D03*
X237998D02*
D03*
D50*
X1295400Y419100D02*
D03*
X1270000D02*
D03*
X1244600D02*
D03*
X1219200D02*
D03*
X1295400Y444500D02*
D03*
X1270000D02*
D03*
X1244600D02*
D03*
X1219200D02*
D03*
X1295400Y469900D02*
D03*
X1270000D02*
D03*
X1244600D02*
D03*
X1219200D02*
D03*
D51*
X50000Y110000D02*
D03*
Y570000D02*
D03*
X730000Y110000D02*
D03*
Y570000D02*
D03*
X1410000Y110000D02*
D03*
Y570000D02*
D03*
D52*
X152400Y425450D02*
D03*
X244475Y381000D02*
D03*
X241300Y361950D02*
D03*
X250825Y346075D02*
D03*
X241300Y393700D02*
D03*
X234950Y403225D02*
D03*
Y422275D02*
D03*
X241300Y431800D02*
D03*
X244475Y336550D02*
D03*
X238125Y327025D02*
D03*
X193675Y330200D02*
D03*
X161925Y361950D02*
D03*
X152400Y368300D02*
D03*
Y352425D02*
D03*
X196850Y358775D02*
D03*
X152400Y336550D02*
D03*
X1231900Y292100D02*
D03*
Y242700D02*
D03*
X1155700Y425450D02*
D03*
X1123950Y450850D02*
D03*
X165100Y180975D02*
D03*
X177800Y342900D02*
D03*
X117475Y346075D02*
D03*
Y333375D02*
D03*
X241300Y292100D02*
D03*
X299475Y361950D02*
D03*
Y342900D02*
D03*
X812800Y400050D02*
D03*
X787400Y441325D02*
D03*
X428625Y349250D02*
D03*
X368300Y327025D02*
D03*
X1377950Y336550D02*
D03*
X184150Y285750D02*
D03*
X146050D02*
D03*
X50800Y384175D02*
D03*
X1051560Y276225D02*
D03*
X1114425Y290449D02*
D03*
X1031875Y276225D02*
D03*
X1114425Y263525D02*
D03*
X708025Y365125D02*
D03*
X876300Y400050D02*
D03*
X850900D02*
D03*
X765175Y365125D02*
D03*
X260350Y222250D02*
D03*
X203200Y428625D02*
D03*
X107950Y200025D02*
D03*
M02*
